<?xml version="1.0" encoding="UTF-8"?>
<svg id="Capa_1" data-name="Capa 1" xmlns="http://www.w3.org/2000/svg" viewBox="0 0 463.21 89.31">
  <defs>
    <style>
      .cls-1 {
        stroke-width: 1px;
      }

      .cls-1, .cls-2 {
        fill: none;
        stroke: white;
        stroke-miterlimit: 3.86;
      }

      .cls-2 {
        stroke-width: 2px;
      }

      .cls-3, .cls-4 {
        fill: white;
        stroke-width: 0px;
      }

      .cls-4 {
        fill-rule: evenodd;
      }
    </style>
  </defs>
  <g>
    <path class="cls-4" d="M0,.03h178.56v89.28H0V.03ZM173.81,53.22H4.75s0,31.34,0,31.34h169.06v-31.34ZM4.75,48.47h169.06V4.78s-169.06,0-169.06,0v43.69Z"/>
    <path class="cls-4" d="M101.49,24.43l-4.56-13.79c-.04-.14-.11-.16-.2-.16h-2.38c-.13,0-.17.05-.22.16l-4.56,13.79c-.07.18.02.29.22.29h3.36c.11,0,.15-.04.2-.16l.59-1.69c.04-.11.09-.16.26-.16h2.62c.17,0,.24.05.28.16l.57,1.69c.04.11.07.16.2.16h3.42c.24,0,.26-.11.2-.29ZM96.37,19.85c.02.11-.04.2-.2.2h-1.26c-.17,0-.24-.09-.22-.2l.39-1.76c.31-1.33.46-2.78.46-2.78h.07s.15,1.44.41,2.78l.35,1.76ZM131.48,20.77v-6.34c0-2.57-1.9-4.24-4.69-4.24h-1.53c-2.79,0-4.73,1.69-4.73,4.24v6.34c0,2.55,1.9,4.24,4.73,4.24h1.53c2.79,0,4.69-1.69,4.69-4.24ZM127.86,20.77c0,.54-.39.93-1.07.93h-1.53c-.76,0-1.16-.36-1.16-.93v-6.34c0-.47.52-.95,1.16-.95h1.53c.63,0,1.07.41,1.07.95v6.34ZM157,24.43l-4.56-13.79c-.04-.14-.11-.16-.2-.16h-2.38c-.13,0-.17.05-.22.16l-4.56,13.79c-.07.18.02.29.22.29h3.36c.11,0,.15-.05.2-.16l.59-1.69c.04-.11.09-.16.26-.16h2.62c.17,0,.24.05.28.16l.57,1.69c.04.11.07.16.2.16h3.42c.24,0,.26-.11.2-.29ZM151.88,19.85c.02.11-.04.2-.2.2h-1.26c-.17,0-.24-.09-.22-.2l.39-1.76c.31-1.33.46-2.78.46-2.78h.07s.15,1.44.41,2.78l.35,1.76ZM118.75,24.5v-13.79c0-.18-.15-.23-.24-.23h-3.2c-.11,0-.2.05-.2.23v13.79c0,.18.09.23.2.23h3.2c.13,0,.24-.05.24-.23ZM144.04,24.5v-13.79c0-.18-.13-.23-.22-.23h-3.07c-.13,0-.2.05-.2.23v3.66c0,2.01.11,3.77.11,3.77h-.07s-.17-.5-.48-1.08l-3.23-6.36c-.07-.14-.15-.2-.28-.2h-2.77c-.11,0-.2.05-.2.23v13.79c0,.18.09.23.2.23h3.14c.13,0,.22-.05.22-.23v-3.59c0-1.85-.13-3.63-.13-3.63h.09s.17.5.46,1.02l3.25,6.23c.07.11.13.2.24.2h2.72c.13,0,.22-.05.22-.23ZM168.12,24.5v-2.89c0-.16-.11-.2-.22-.2h-5.36c-.2,0-.26-.09-.26-.25v-10.45c0-.18-.13-.23-.22-.23h-3.23c-.11,0-.2.05-.2.23v13.79c0,.18.09.23.2.23h9.07c.13,0,.22-.05.22-.23ZM88.09,24.5v-13.79c0-.18-.13-.23-.22-.23h-3.07c-.13,0-.2.05-.2.23v3.66c0,2.01.11,3.77.11,3.77h-.07s-.17-.5-.48-1.08l-3.23-6.36c-.07-.14-.15-.2-.28-.2h-2.77c-.11,0-.2.05-.2.23v13.79c0,.18.09.23.2.23h3.14c.13,0,.22-.05.22-.23v-3.59c0-1.85-.13-3.63-.13-3.63h.09s.17.5.46,1.02l3.25,6.23c.07.11.13.2.24.2h2.72c.13,0,.22-.05.22-.23ZM36.87,20.77v-10.06c0-.18-.07-.23-.2-.23h-3.2c-.11,0-.2.05-.2.23v10.06c0,.56-.33.93-1.09.93h-1.53c-.81,0-1.16-.36-1.16-.93v-10.06c0-.18-.11-.23-.2-.23h-3.16c-.13,0-.2.05-.2.23v10.06c0,2.55,1.87,4.24,4.71,4.24h1.53c2.79,0,4.69-1.69,4.69-4.24ZM72.29,20.76v-6.34c0-2.57-1.9-4.24-4.69-4.24h-1.53c-2.79,0-4.73,1.69-4.73,4.24v6.34c0,2.55,1.9,4.24,4.73,4.24h1.53c2.79,0,4.69-1.69,4.69-4.24ZM68.67,20.76c0,.54-.39.93-1.07.93h-1.53c-.76,0-1.16-.36-1.16-.93v-6.34c0-.47.52-.95,1.16-.95h1.53c.63,0,1.07.41,1.07.95v6.34ZM48.54,20.56c0-2.53-1.22-3.63-3.77-4.47-1.09-.36-2.42-.68-2.42-1.56,0-.72.44-1.04,1.09-1.04h.37c.74,0,1.29.41,1.68,1.17.09.18.28.18.44.07l2.27-1.56c.22-.14.13-.36.04-.5-.28-.5-.63-.95-1.05-1.31-.85-.77-2.01-1.2-3.42-1.2h-.33c-2.99,0-4.8,1.67-4.8,4.47,0,2.5,1.31,3.5,3.64,4.33,1.46.52,2.55.65,2.55,1.67,0,.65-.44,1.04-1.11,1.04h-.68c-.74,0-1.29-.41-1.68-1.17-.09-.18-.28-.18-.44-.07l-2.27,1.56c-.22.14-.13.34-.04.47.24.43.52.81.87,1.15.87.88,2.09,1.38,3.6,1.38h.68c3.07,0,4.77-1.67,4.77-4.45ZM59.69,24.48v-2.89c0-.16-.11-.2-.22-.2h-5.08c-.2,0-.26-.09-.26-.25v-1.74c0-.16.07-.25.26-.25h4.12c.11,0,.22-.05.22-.2v-2.91c0-.16-.11-.2-.22-.2h-4.12c-.2,0-.26-.09-.26-.25v-1.56c0-.16.07-.25.26-.25h5.08c.13,0,.22-.05.22-.2v-2.89c0-.18-.13-.23-.22-.23h-8.78c-.11,0-.2.05-.2.23v13.79c0,.18.09.23.2.23h8.78c.13,0,.22-.05.22-.23ZM23.42,24.49v-13.79c0-.18-.09-.23-.22-.23h-3.16c-.09,0-.17.05-.22.14l-2.51,6.93c-.17.5-.28.9-.28.9h-.09s-.04-.41-.24-.9l-2.59-6.93c-.04-.09-.13-.14-.22-.14h-3.25c-.13,0-.2.05-.2.23v13.79c0,.18.07.23.2.23h3.07c.15,0,.22-.05.22-.23v-2.96c0-2.14-.2-4.11-.2-4.11h.07s.2.95.54,1.96l1.16,3.41c.07.18.26.23.39.23h2.11c.13,0,.31-.05.37-.23l1.16-3.34c.35-1.02.54-2.03.54-2.03h.07s-.15,2.03-.15,4.15v2.91c0,.18.04.23.2.23h3.01c.13,0,.22-.05.22-.23ZM113.25,20.74c0,2.55-1.89,4.24-4.68,4.24h-1.52c-2.83,0-4.73-1.69-4.73-4.24v-6.34c0-2.55,1.94-4.24,4.73-4.24h1.52c2.79,0,4.68,1.67,4.68,4.24v1.21h-3.62v-1.21c0-.54-.44-.95-1.07-.95h-1.52c-.63,0-1.15.47-1.15.95v6.34c0,.56.39.92,1.15.92h1.52c.68,0,1.07-.38,1.07-.92v-1.21h3.62v1.21Z"/>
    <path class="cls-4" d="M131.78,42.47l-4.56-13.79c-.04-.14-.11-.16-.2-.16h-2.38c-.13,0-.17.05-.22.16l-4.56,13.79c-.07.18.02.29.22.29h3.36c.11,0,.15-.05.2-.16l.59-1.69c.04-.11.09-.16.26-.16h2.62c.17,0,.24.05.28.16l.57,1.69c.04.11.07.16.2.16h3.42c.24,0,.26-.11.2-.29ZM126.65,37.89c.02.11-.04.2-.2.2h-1.26c-.17,0-.24-.09-.22-.2l.39-1.76c.31-1.33.46-2.78.46-2.78h.07s.15,1.44.41,2.78l.35,1.76ZM145.05,42.47l-2.14-5.67c-.07-.2-.09-.36.11-.5.96-.63,1.59-1.72,1.59-3.11v-.2c0-2.78-1.83-4.47-4.69-4.47h-6.08c-.11,0-.2.05-.2.23v13.79c0,.18.09.23.2.23h3.23c.11,0,.22-.05.22-.23v-5.08c0-.16.07-.25.26-.25h1.5c.09,0,.15.05.2.16l2,5.24c.04.09.11.16.2.16h3.4c.22,0,.26-.14.2-.29ZM141.01,33.22c0,.61-.41.9-1.09.9h-2.38c-.2,0-.26-.09-.26-.25v-1.78c0-.16.07-.25.26-.25h2.38c.72,0,1.09.34,1.09.95v.43ZM98.18,38.52c0,.47-.48.93-1.09.93h-2.38c-.2,0-.26-.09-.26-.25v-7.11c0-.16.07-.25.26-.25h2.38c.59,0,1.09.5,1.09.95v5.73ZM101.77,38.34v-5.35c0-2.78-1.83-4.47-4.69-4.47h-6.08c-.11,0-.2.05-.2.23v13.79c0,.18.09.23.2.23h6.08c2.86,0,4.69-1.69,4.69-4.42ZM114.04,42.54v-2.89c0-.16-.11-.2-.22-.2h-5.36c-.2,0-.26-.09-.26-.25v-1.74c0-.16.07-.25.26-.25h4.4c.11,0,.22-.05.22-.2v-2.91c0-.16-.11-.2-.22-.2h-4.4c-.2,0-.26-.09-.26-.25v-1.56c0-.16.07-.25.26-.25h5.36c.13,0,.22-.05.22-.2v-2.89c0-.18-.13-.23-.22-.23h-9.07c-.11,0-.2.05-.2.23v13.79c0,.18.09.23.2.23h9.07c.13,0,.22-.05.22-.23ZM156.04,31.64v-2.89c0-.18-.13-.23-.2-.23h-9.52c-.11,0-.22.05-.22.23v2.89c0,.16.11.2.22.2h2.67c.24,0,.28.09.28.25v10.45c0,.18.09.23.2.23h3.2c.11,0,.22-.05.22-.23v-10.45c0-.16.04-.25.26-.25h2.69c.11,0,.2-.05.2-.2ZM168.11,42.54v-2.89c0-.16-.11-.2-.22-.2h-5.36c-.2,0-.26-.09-.26-.25v-1.74c0-.16.07-.25.26-.25h4.4c.11,0,.22-.05.22-.2v-2.91c0-.16-.11-.2-.22-.2h-4.4c-.2,0-.26-.09-.26-.25v-1.56c0-.16.07-.25.26-.25h5.36c.13,0,.22-.05.22-.2v-2.89c0-.18-.13-.23-.22-.23h-9.07c-.11,0-.2.05-.2.23v13.79c0,.18.09.23.2.23h9.07c.13,0,.22-.05.22-.23ZM33.31,42.54v-2.89c0-.16-.11-.2-.22-.2h-5.36c-.2,0-.26-.09-.26-.25v-1.74c0-.16.07-.25.26-.25h4.4c.11,0,.22-.04.22-.2v-2.91c0-.16-.11-.2-.22-.2h-4.4c-.2,0-.26-.09-.26-.25v-1.56c0-.16.07-.25.26-.25h5.36c.13,0,.22-.05.22-.2v-2.89c0-.18-.13-.23-.22-.23h-9.07c-.11,0-.2.05-.2.23v13.79c0,.18.09.23.2.23h9.07c.13,0,.22-.05.22-.23ZM72.15,42.47l-2.14-5.67c-.07-.2-.09-.36.11-.5.96-.63,1.59-1.72,1.59-3.11v-.2c0-2.78-1.83-4.47-4.69-4.47h-6.08c-.11,0-.2.05-.2.23v13.79c0,.18.09.23.2.23h3.23c.11,0,.22-.05.22-.23v-5.08c0-.16.07-.25.26-.25h1.5c.09,0,.15.05.2.16l2,5.24c.04.09.11.16.2.16h3.4c.22,0,.26-.14.2-.29ZM68.11,33.22c0,.61-.41.9-1.09.9h-2.38c-.2,0-.26-.09-.26-.25v-1.78c0-.16.07-.25.26-.25h2.38c.72,0,1.09.34,1.09.95v.43ZM84.74,38.7v-6.34c0-2.57-1.9-4.24-4.69-4.24h-1.53c-2.79,0-4.73,1.69-4.73,4.24v6.34c0,2.55,1.9,4.24,4.73,4.24h1.53c2.79,0,4.69-1.69,4.69-4.24ZM81.12,38.7c0,.54-.39.93-1.07.93h-1.53c-.76,0-1.16-.36-1.16-.93v-6.34c0-.47.52-.95,1.16-.95h1.53c.63,0,1.07.41,1.07.95v6.34ZM46.45,42.54v-13.79c0-.18-.13-.23-.22-.23h-3.07c-.13,0-.2.05-.2.23v3.66c0,2.01.11,3.77.11,3.77h-.07s-.17-.5-.48-1.08l-3.23-6.36c-.07-.14-.15-.2-.28-.2h-2.77c-.11,0-.2.05-.2.23v13.79c0,.18.09.23.2.23h3.14c.13,0,.22-.05.22-.23v-3.59c0-1.85-.13-3.63-.13-3.63h.09s.17.5.46,1.02l3.25,6.23c.07.11.13.2.24.2h2.72c.13,0,.22-.05.22-.23ZM58.57,31.64v-2.89c0-.18-.13-.23-.2-.23h-9.52c-.11,0-.22.05-.22.23v2.89c0,.16.11.2.22.2h2.67c.24,0,.28.09.28.25v10.45c0,.18.09.23.2.23h3.2c.11,0,.22-.05.22-.23v-10.45c0-.16.04-.25.26-.25h2.69c.11,0,.2-.05.2-.2ZM21.39,38.7c0,2.55-1.89,4.24-4.68,4.24h-1.52c-2.83,0-4.73-1.69-4.73-4.24v-6.34c0-2.55,1.94-4.24,4.73-4.24h1.52c2.79,0,4.68,1.67,4.68,4.24v1.21h-3.62v-1.21c0-.54-.44-.95-1.07-.95h-1.52c-.63,0-1.15.47-1.15.95v6.34c0,.56.39.92,1.15.92h1.52c.68,0,1.07-.38,1.07-.92v-1.21h3.62v1.21Z"/>
    <path class="cls-4" d="M20.99,65.48c0,.85-.59,1.26-1.56,1.26h-3.4c-.28,0-.37-.13-.37-.35v-2.49c0-.22.09-.35.37-.35h3.4c1.03,0,1.56.47,1.56,1.32v.6ZM26.76,78.4l-3.06-7.91c-.09-.28-.12-.5.16-.69,1.37-.88,2.28-2.4,2.28-4.35v-.28c0-3.88-2.62-6.24-6.7-6.24h-8.7c-.16,0-.28.06-.28.32v19.26c0,.25.12.31.28.31h4.62c.16,0,.31-.06.31-.31v-7.09c0-.22.09-.35.37-.35h2.15c.12,0,.22.06.28.22l2.87,7.31c.06.13.16.22.28.22h4.86c.31,0,.37-.19.28-.41ZM42.9,78.5v-4.04c0-.22-.16-.28-.31-.28h-7.67c-.28,0-.37-.13-.37-.35v-2.43c0-.22.09-.35.37-.35h6.3c.16,0,.31-.06.31-.28v-4.07c0-.22-.16-.28-.31-.28h-6.3c-.28,0-.37-.13-.37-.35v-2.18c0-.22.09-.35.37-.35h7.67c.19,0,.31-.06.31-.28v-4.04c0-.25-.19-.32-.31-.32h-12.97c-.16,0-.28.06-.28.32v19.26c0,.25.12.31.28.31h12.97c.19,0,.31-.06.31-.31ZM88.07,78.4l-6.52-19.26c-.06-.19-.16-.22-.28-.22h-3.4c-.19,0-.25.06-.31.22l-6.52,19.26c-.09.25.03.41.31.41h4.8c.16,0,.22-.06.28-.22l.84-2.36c.06-.16.12-.22.37-.22h3.74c.25,0,.34.06.41.22l.81,2.36c.06.16.09.22.28.22h4.9c.34,0,.37-.16.28-.41ZM80.74,72c.03.16-.06.28-.28.28h-1.81c-.25,0-.34-.13-.31-.28l.56-2.46c.44-1.86.65-3.88.65-3.88h.09s.22,2.02.59,3.88l.5,2.46ZM125.5,73.35v-8.86c0-3.59-2.71-5.93-6.7-5.93h-2.18c-3.99,0-6.77,2.36-6.77,5.93v8.86c0,3.56,2.71,5.93,6.77,5.93h2.18c3.99,0,6.7-2.36,6.7-5.93ZM120.32,73.35c0,.76-.56,1.29-1.53,1.29h-2.18c-1.09,0-1.65-.5-1.65-1.29v-8.86c0-.66.75-1.32,1.65-1.32h2.18c.9,0,1.53.57,1.53,1.32v8.86ZM51.11,78.5v-19.26c0-.25-.22-.32-.34-.32h-4.58c-.16,0-.28.06-.28.32v19.26c0,.25.12.31.28.31h4.58c.19,0,.34-.06.34-.31ZM69,78.5v-19.26c0-.25-.19-.32-.31-.32h-4.4c-.19,0-.28.06-.28.32v5.11c0,2.81.16,5.27.16,5.27h-.09s-.25-.69-.69-1.51l-4.62-8.89c-.09-.19-.22-.28-.41-.28h-3.96c-.16,0-.28.06-.28.32v19.26c0,.25.12.31.28.31h4.49c.19,0,.31-.06.31-.31v-5.01c0-2.59-.19-5.08-.19-5.08h.13s.25.69.65,1.42l4.65,8.7c.09.16.19.28.34.28h3.9c.19,0,.31-.06.31-.31ZM168.16,78.45l-6.53-19.3c-.06-.19-.16-.22-.28-.22h-3.4c-.19,0-.25.06-.31.22l-6.53,19.3c-.09.25.03.41.31.41h4.81c.16,0,.22-.06.28-.22l.84-2.37c.06-.16.13-.22.38-.22h3.75c.25,0,.34.06.41.22l.81,2.37c.06.16.09.22.28.22h4.9c.34,0,.37-.16.28-.41ZM160.83,72.04c.03.16-.06.28-.28.28h-1.81c-.25,0-.34-.13-.31-.28l.56-2.46c.44-1.86.66-3.89.66-3.89h.09s.22,2.02.59,3.89l.5,2.46ZM141.54,63.28v-4.05c0-.25-.19-.32-.31-.32h-12.97c-.16,0-.28.06-.28.32v19.32c0,.25.12.32.28.32h4.61c.16,0,.31-.06.31-.32v-7.11c0-.22.09-.35.37-.35h6.3c.16,0,.31-.06.31-.28v-4.08c0-.22-.16-.28-.31-.28h-6.3c-.28,0-.37-.13-.37-.35v-2.18c0-.22.09-.35.37-.35h7.67c.19,0,.31-.06.31-.28ZM148.92,78.55v-19.32c0-.25-.22-.32-.34-.32h-4.58c-.16,0-.28.06-.28.32v19.32c0,.25.12.32.28.32h4.58c.19,0,.34-.06.34-.32ZM107.67,73.06c0-3.53-1.75-5.08-5.4-6.24-1.56-.5-3.46-.95-3.46-2.18,0-1.01.62-1.45,1.56-1.45h.53c1.06,0,1.84.57,2.4,1.64.13.25.41.25.62.09l3.24-2.18c.31-.19.19-.5.06-.69-.41-.69-.9-1.32-1.5-1.83-1.22-1.07-2.87-1.67-4.9-1.67h-.47c-4.27,0-6.86,2.33-6.86,6.24,0,3.5,1.87,4.89,5.21,6.05,2.09.72,3.65.91,3.65,2.33,0,.91-.62,1.45-1.59,1.45h-.97c-1.06,0-1.84-.57-2.4-1.64-.12-.25-.41-.25-.62-.09l-3.24,2.18c-.31.19-.19.47-.06.66.34.6.75,1.14,1.25,1.61,1.25,1.23,2.99,1.92,5.15,1.92h.97c4.4,0,6.83-2.33,6.83-6.21Z"/>
  </g>
  <rect class="cls-1" x="195.27" y=".5" width="267.44" height="88.21"/>
  <g>
    <path class="cls-3" d="M371.02,34.66h.95v6.98h-1.02v-5.43l-2.18,2.7h-.19l-2.2-2.7v5.43h-1.01v-6.98h.96l2.35,2.87,2.34-2.87Z"/>
    <path class="cls-3" d="M373.51,34.66h1.01v6.98h-1.01v-6.98Z"/>
    <path class="cls-3" d="M381.72,34.66h.96v6.98h-.87l-4.73-5.37v5.37h-.95v-6.98h.82l4.78,5.42v-5.42Z"/>
    <path class="cls-3" d="M384.21,34.66h1.01v6.98h-1.01v-6.98Z"/>
    <path class="cls-3" d="M388.55,38.72l-.77-.46c-.48-.29-.83-.58-1.03-.86-.2-.28-.31-.61-.31-.97,0-.55.19-1,.58-1.34.39-.34.89-.51,1.51-.51s1.13.16,1.63.49v1.13c-.51-.48-1.06-.73-1.65-.73-.33,0-.6.08-.82.23s-.32.34-.32.58c0,.21.08.4.24.59.16.18.41.37.76.57l.77.45c.86.51,1.3,1.16,1.3,1.94,0,.56-.19,1.01-.57,1.36-.38.35-.87.52-1.48.52-.7,0-1.34-.21-1.91-.64v-1.27c.55.68,1.18,1.03,1.9,1.03.32,0,.58-.09.79-.26.21-.17.32-.39.32-.65,0-.42-.31-.83-.93-1.21Z"/>
    <path class="cls-3" d="M390.95,34.65h5.92v.89h-2.47v6.1h-1.02v-6.1h-2.43v-.89Z"/>
    <path class="cls-3" d="M397.82,34.66h4.01v.89h-3v2.13h2.9v.89h-2.9v2.17h3.1v.89h-4.11v-6.97Z"/>
    <path class="cls-3" d="M403.04,41.64v-6.98h1.77c.72,0,1.29.17,1.71.52.42.35.63.82.63,1.42,0,.41-.1.76-.31,1.05-.21.3-.5.52-.89.66.23.15.45.35.66.6s.52.69.91,1.32c.25.4.44.69.59.89l.37.5h-1.21l-.31-.46s-.03-.05-.06-.09l-.2-.27-.31-.51-.34-.54c-.21-.29-.4-.51-.58-.68s-.33-.29-.47-.37c-.14-.07-.38-.11-.71-.11h-.26v3.04h-1.01ZM404.36,35.51h-.3v2.2h.39c.51,0,.87-.04,1.06-.13.19-.09.34-.22.45-.39s.16-.37.16-.6-.06-.42-.18-.6-.28-.3-.5-.38c-.21-.07-.57-.11-1.07-.11Z"/>
    <path class="cls-3" d="M409.29,34.66h1.01v6.98h-1.01v-6.98Z"/>
    <path class="cls-3" d="M415.35,34.56c1.09,0,2,.34,2.73,1.02.73.68,1.09,1.54,1.09,2.57s-.37,1.88-1.1,2.56c-.73.67-1.66,1.01-2.78,1.01s-1.96-.34-2.67-1.01c-.71-.67-1.07-1.52-1.07-2.54s.36-1.9,1.07-2.59c.72-.68,1.62-1.02,2.72-1.02ZM415.39,35.51c-.81,0-1.48.25-2,.75-.52.5-.78,1.14-.78,1.91s.26,1.38.78,1.88c.52.5,1.18.75,1.97.75s1.45-.25,1.98-.76c.53-.51.79-1.14.79-1.9s-.26-1.36-.79-1.87c-.53-.5-1.18-.76-1.95-.76Z"/>
    <path class="cls-3" d="M365.4,52.21v-6.97h2.39c.96,0,1.72.14,2.29.43.56.28,1.01.7,1.34,1.26s.5,1.16.5,1.81c0,.47-.09.91-.27,1.34-.18.43-.44.8-.78,1.12-.35.33-.75.58-1.2.75-.27.1-.51.17-.73.21-.22.03-.65.05-1.28.05h-2.24ZM367.68,46.13h-1.27v5.19h1.3c.51,0,.9-.03,1.18-.1.28-.07.51-.15.7-.26.19-.1.36-.23.51-.39.5-.5.75-1.13.75-1.89s-.26-1.36-.77-1.83c-.19-.18-.41-.32-.65-.43-.25-.11-.48-.19-.7-.22-.22-.04-.57-.05-1.06-.05Z"/>
    <path class="cls-3" d="M373.18,45.24h4.01v.89h-3v2.13h2.9v.89h-2.9v2.17h3.1v.89h-4.11v-6.97Z"/>
    <path class="cls-3" d="M387.36,50.6v1.1c-.74.4-1.6.6-2.58.6-.79,0-1.46-.16-2.01-.47-.55-.31-.99-.74-1.31-1.29-.32-.55-.48-1.14-.48-1.78,0-1.02.37-1.87,1.1-2.56.73-.69,1.64-1.04,2.72-1.04.74,0,1.57.19,2.48.57v1.07c-.83-.47-1.64-.7-2.43-.7s-1.48.25-2.02.76-.8,1.14-.8,1.9.26,1.4.79,1.89,1.2.74,2.02.74,1.7-.26,2.51-.78Z"/>
    <path class="cls-3" d="M393.53,45.24h1.02v3.96c0,.54-.04.94-.12,1.21s-.18.5-.29.68c-.12.18-.26.34-.43.49-.56.48-1.29.71-2.2.71s-1.66-.24-2.22-.71c-.17-.15-.31-.31-.43-.49-.12-.18-.21-.4-.29-.67-.08-.26-.11-.68-.11-1.24v-3.95h1.02v3.96c0,.66.08,1.11.23,1.37.15.26.38.46.69.62s.68.23,1.1.23c.6,0,1.09-.15,1.47-.46.2-.17.34-.36.43-.59.09-.23.13-.61.13-1.16v-3.96Z"/>
    <path class="cls-3" d="M395.95,45.24h1.01v6.07h3.19v.91h-4.2v-6.98Z"/>
    <path class="cls-3" d="M399.55,45.23h5.92v.89h-2.47v6.1h-1.02v-6.1h-2.43v-.89Z"/>
    <path class="cls-3" d="M411.35,45.24h1.02v3.96c0,.54-.04.94-.12,1.21s-.18.5-.29.68c-.12.18-.26.34-.43.49-.56.48-1.29.71-2.2.71s-1.66-.24-2.22-.71c-.17-.15-.31-.31-.43-.49-.12-.18-.21-.4-.29-.67-.08-.26-.11-.68-.11-1.24v-3.95h1.02v3.96c0,.66.08,1.11.23,1.37.15.26.38.46.69.62s.68.23,1.1.23c.6,0,1.09-.15,1.47-.46.2-.17.34-.36.43-.59.09-.23.13-.61.13-1.16v-3.96Z"/>
    <path class="cls-3" d="M413.8,52.22v-6.98h1.77c.72,0,1.29.17,1.71.52.42.35.63.82.63,1.42,0,.41-.1.76-.31,1.05-.21.3-.5.52-.89.66.23.15.45.35.66.6s.52.69.91,1.32c.25.4.44.69.59.89l.37.5h-1.21l-.31-.46s-.03-.05-.06-.09l-.2-.27-.31-.51-.34-.54c-.21-.29-.4-.51-.58-.68s-.33-.29-.47-.37c-.14-.07-.38-.11-.71-.11h-.26v3.04h-1.01ZM415.12,46.09h-.3v2.2h.39c.51,0,.87-.04,1.06-.13.19-.09.34-.22.45-.39s.16-.37.16-.6-.06-.42-.18-.6-.28-.3-.5-.38c-.21-.07-.57-.11-1.07-.11Z"/>
    <path class="cls-3" d="M422.3,45.2h.71l3.18,7.02h-1.04l-.94-2.07h-3.02l-.88,2.07h-1.04l3.04-7.02ZM423.79,49.26l-1.14-2.53-1.06,2.53h2.2Z"/>
  </g>
  <g>
    <path class="cls-3" d="M284.14,38.4h2.53v3.15c-.93.4-1.85.6-2.77.6-1.25,0-2.25-.36-3-1.08-.75-.72-1.12-1.61-1.12-2.66,0-1.11.39-2.04,1.16-2.77.77-.74,1.75-1.11,2.91-1.11.42,0,.83.05,1.21.14s.86.26,1.45.5v1.09c-.9-.51-1.79-.77-2.68-.77-.82,0-1.52.28-2.09.83s-.85,1.23-.85,2.04c0,.84.28,1.54.85,2.07.57.54,1.29.8,2.18.8.43,0,.95-.1,1.55-.29l.1-.03v-1.55h-1.45v-.95Z"/>
    <path class="cls-3" d="M291.96,34.52c1.17,0,2.14.36,2.91,1.09s1.16,1.64,1.16,2.74-.39,2-1.17,2.72-1.77,1.08-2.96,1.08-2.08-.36-2.84-1.08c-.76-.72-1.14-1.62-1.14-2.7s.38-2.03,1.15-2.76,1.73-1.09,2.89-1.09ZM292,35.53c-.86,0-1.57.27-2.13.8-.56.53-.83,1.21-.83,2.04s.28,1.47.84,2c.56.53,1.26.8,2.09.8s1.54-.27,2.11-.81c.56-.54.84-1.22.84-2.03s-.28-1.45-.84-1.99-1.26-.81-2.08-.81Z"/>
    <path class="cls-3" d="M299.92,42.06h-2.56v-7.44h1.98c.62,0,1.11.08,1.46.25.35.16.62.39.8.68.18.29.28.62.28,1,0,.73-.38,1.25-1.15,1.57.55.1.99.33,1.32.67.33.34.49.76.49,1.24,0,.38-.1.72-.3,1.02s-.49.54-.87.73c-.38.19-.86.28-1.44.28ZM299.37,35.57h-.93v2.24h.72c.58,0,.99-.11,1.23-.32s.36-.5.36-.84c0-.71-.46-1.07-1.38-1.07ZM299.46,38.76h-1.01v2.36h1.06c.59,0,.99-.05,1.2-.14.21-.09.38-.23.51-.42.13-.19.19-.4.19-.62s-.07-.43-.2-.62c-.13-.19-.33-.33-.58-.42s-.64-.14-1.18-.14Z"/>
    <path class="cls-3" d="M303.6,34.62h1.08v7.44h-1.08v-7.44Z"/>
    <path class="cls-3" d="M306.36,34.62h4.28v.95h-3.2v2.27h3.09v.95h-3.09v2.31h3.3v.95h-4.38v-7.43Z"/>
    <path class="cls-3" d="M311.93,42.06v-7.44h1.89c.76,0,1.37.19,1.82.56s.67.88.67,1.51c0,.43-.11.81-.33,1.12-.22.32-.54.55-.95.71.24.16.48.37.71.64.23.27.55.74.97,1.41.26.42.47.74.63.95l.4.53h-1.29l-.33-.49s-.03-.05-.07-.09l-.21-.29-.33-.54-.36-.58c-.22-.31-.43-.55-.61-.73-.19-.18-.35-.31-.5-.39-.15-.08-.4-.12-.75-.12h-.28v3.24h-1.08ZM313.33,35.53h-.32v2.35h.41c.55,0,.92-.05,1.13-.14.2-.09.36-.23.48-.42s.17-.4.17-.64-.06-.45-.19-.64-.3-.32-.53-.4c-.23-.08-.61-.12-1.14-.12Z"/>
    <path class="cls-3" d="M324.57,34.62h1.03v7.44h-.93l-5.05-5.73v5.73h-1.02v-7.44h.88l5.09,5.78v-5.78Z"/>
    <path class="cls-3" d="M330.92,34.52c1.17,0,2.14.36,2.91,1.09s1.16,1.64,1.16,2.74-.39,2-1.17,2.72-1.77,1.08-2.96,1.08-2.08-.36-2.84-1.08c-.76-.72-1.14-1.62-1.14-2.7s.38-2.03,1.15-2.76,1.73-1.09,2.89-1.09ZM330.96,35.53c-.86,0-1.57.27-2.13.8-.56.53-.83,1.21-.83,2.04s.28,1.47.84,2c.56.53,1.26.8,2.09.8s1.54-.27,2.11-.81c.56-.54.84-1.22.84-2.03s-.28-1.45-.84-1.99-1.26-.81-2.08-.81Z"/>
    <path class="cls-3" d="M280.07,53.3v-7.43h2.55c1.03,0,1.84.15,2.44.46.6.3,1.07.75,1.43,1.34s.53,1.23.53,1.93c0,.5-.1.97-.29,1.43-.19.45-.47.85-.83,1.2-.37.35-.79.62-1.28.8-.28.11-.55.18-.78.22-.24.04-.69.06-1.36.06h-2.39ZM282.51,46.82h-1.35v5.53h1.38c.54,0,.96-.04,1.26-.11s.55-.16.75-.28c.2-.11.38-.25.55-.41.53-.53.8-1.21.8-2.02s-.27-1.45-.82-1.95c-.2-.19-.43-.34-.69-.46-.26-.12-.51-.2-.74-.24-.23-.04-.61-.06-1.13-.06Z"/>
    <path class="cls-3" d="M288.36,45.87h4.28v.95h-3.2v2.27h3.09v.95h-3.09v2.31h3.3v.95h-4.38v-7.43Z"/>
    <path class="cls-3" d="M296.97,45.87h4.28v.95h-3.2v2.27h3.09v.95h-3.09v2.31h3.3v.95h-4.38v-7.43Z"/>
    <path class="cls-3" d="M304.37,50.19l-.82-.49c-.52-.31-.88-.61-1.1-.91-.22-.3-.33-.65-.33-1.04,0-.59.21-1.06.62-1.43.41-.37.95-.55,1.61-.55s1.21.17,1.73.52v1.21c-.54-.52-1.13-.77-1.76-.77-.35,0-.64.08-.87.24-.23.16-.34.37-.34.62,0,.22.08.43.25.63.17.19.44.4.81.61l.83.48c.92.54,1.38,1.23,1.38,2.07,0,.6-.2,1.08-.61,1.45s-.93.56-1.58.56c-.75,0-1.43-.23-2.04-.68v-1.35c.58.73,1.26,1.09,2.03,1.09.34,0,.62-.09.85-.28.22-.19.34-.42.34-.7,0-.45-.33-.88-.99-1.29Z"/>
    <path class="cls-3" d="M307.51,53.31v-7.45h2.39c.72,0,1.29.19,1.72.58.43.38.64.9.64,1.54,0,.43-.11.82-.33,1.15-.22.33-.52.58-.9.73s-.93.23-1.64.23h-.8v3.23h-1.09ZM309.71,46.81h-1.12v2.33h1.18c.44,0,.78-.1,1.02-.31s.36-.5.36-.88c0-.76-.48-1.14-1.44-1.14Z"/>
    <path class="cls-3" d="M314.87,45.83h.76l3.38,7.48h-1.11l-1.01-2.2h-3.22l-.94,2.2h-1.11l3.24-7.48ZM316.46,50.16l-1.22-2.69-1.13,2.69h2.35Z"/>
    <path class="cls-3" d="M325.84,45.87h1.03v7.44h-.93l-5.05-5.73v5.73h-1.02v-7.44h.88l5.09,5.78v-5.78ZM325.08,43.85c0,.43-.1.76-.3,1.01-.15.19-.34.28-.57.28-.2,0-.46-.07-.8-.21-.33-.14-.59-.21-.76-.21-.09,0-.17.04-.24.11s-.11.18-.12.32h-.45c.06-.5.16-.84.31-1s.34-.25.57-.25c.21,0,.55.09,1.02.28.24.1.41.14.52.14s.19-.03.26-.1c.07-.07.12-.19.14-.35h.42Z"/>
    <path class="cls-3" d="M330.89,45.83h.76l3.38,7.48h-1.11l-1.01-2.2h-3.22l-.94,2.2h-1.11l3.24-7.48ZM332.48,50.16l-1.22-2.69-1.13,2.69h2.35Z"/>
  </g>
  <line class="cls-2" x1="350.23" y1=".42" x2="350.23" y2="88.71"/>
  <g id="Capa_2" data-name="Capa 2">
    <path class="cls-3" d="M254.61,23.34c0,.1-.08.17-.17.17s-.18-.08-.18-.17.08-.18.18-.18.17.08.17.18M253.94,23.34c0,.27.22.49.49.49s.49-.22.49-.49-.22-.5-.49-.5-.49.22-.49.5M253.67,21.17c.1,0,.17.08.17.18,0,.09-.08.17-.17.17s-.18-.08-.18-.17c0-.1.08-.18.18-.18M253.17,21.35c0,.27.22.49.5.49s.49-.22.49-.49c0-.28-.22-.5-.49-.5s-.5.22-.5.5M238.04,19.84c-.12,0-.21-.08-.21-.2,0-.11.09-.2.21-.2.1,0,.2.09.2.2,0,.12-.1.2-.2.2M238.04,19.17c-.27,0-.47.21-.47.47s.2.46.47.46.47-.2.47-.46-.22-.47-.47-.47M230.42,31.42c.12,0,.2.09.2.19,0,.11-.08.19-.2.19-.1,0-.18-.08-.18-.19,0-.1.08-.19.18-.19M230.42,32.09c.27,0,.49-.22.49-.48s-.22-.47-.49-.47-.47.22-.47.47.22.48.47.48M254.4,24.58c-.11,0-.19-.07-.19-.18,0-.09.08-.16.19-.16.1,0,.19.07.19.16,0,.11-.1.18-.19.18M254.4,23.93c-.28,0-.5.21-.5.47,0,.28.21.49.5.49s.5-.22.5-.49-.23-.47-.5-.47M221.63,23.16c.1,0,.18.09.18.18s-.08.17-.18.17c-.1,0-.18-.07-.18-.17s.08-.18.18-.18M221.63,23.83c.27,0,.49-.22.49-.49s-.22-.5-.49-.5-.49.22-.49.5.22.49.49.49M221.66,24.58c-.08,0-.16-.07-.16-.18,0-.09.08-.16.16-.16.11,0,.18.07.18.16,0,.11-.07.18-.18.18M221.66,23.93c-.26,0-.48.22-.48.47,0,.27.22.49.48.49.28,0,.5-.21.5-.49s-.22-.47-.5-.47M222.4,21.17c.09,0,.16.08.16.18,0,.09-.08.17-.16.17-.1,0-.19-.08-.19-.17,0-.1.09-.18.19-.18M222.4,21.84c.26,0,.48-.22.48-.49,0-.28-.22-.5-.48-.5-.28,0-.51.22-.51.5,0,.26.23.49.51.49M240.67,30.8c.1,0,.2.09.2.19s-.09.19-.2.19-.19-.09-.19-.19c0-.1.07-.19.19-.19M240.67,31.46c.27,0,.48-.22.48-.48s-.22-.48-.48-.48-.47.21-.47.48.2.48.47.48M242.31,30.95s.07-.04.13-.03l.74.09.72.1c.11,0,.18.1.17.22-.01.1-.12.18-.24.16l-.71-.09s-.73-.09-.74-.09c-.05,0-.1-.04-.13-.08-.03-.04-.04-.09-.03-.13,0-.06.03-.1.08-.15M242.37,31.6s.72.09.72.09l.71.1c.27.04.51-.15.55-.42.02-.28-.16-.51-.42-.53,0,0-.72-.1-.72-.1l-.74-.08c-.11-.02-.23,0-.33.08-.11.08-.18.2-.2.33-.02.12.02.26.1.35.09.1.2.17.33.18M245.71,31.42c.1,0,.21.09.21.19,0,.1-.1.19-.21.19-.1,0-.19-.08-.19-.19,0-.1.09-.19.19-.19M245.71,32.09c.27,0,.49-.23.49-.48s-.22-.47-.49-.47-.48.22-.48.47.22.48.48.48M221.87,22.13c.1,0,.17.08.17.18,0,.09-.08.17-.17.17s-.18-.08-.18-.17c0-.1.08-.18.18-.18M221.87,22.79c.27,0,.49-.22.49-.48,0-.28-.22-.5-.49-.5s-.5.22-.5.5c0,.26.23.48.5.48M232.11,31.18s.06-.06.12-.07c0,0,.73-.1.73-.1,0,0,.72-.09.72-.09.08,0,.12,0,.16.04.03.03.07.08.07.13,0,.05,0,.1-.04.14-.04.04-.09.07-.13.08l-.74.09-.72.09c-.12.01-.21-.06-.23-.17,0-.05.02-.1.05-.14M232.32,31.78l.73-.1s.73-.09.72-.09c.12-.02.24-.08.32-.18.08-.1.12-.23.1-.35,0-.12-.08-.25-.18-.32-.1-.08-.23-.11-.36-.09l-.73.08s-.72.1-.72.1c-.12,0-.23.06-.31.15-.08.1-.12.24-.11.37.05.29.28.46.54.42M238.04,18.55c.07,0,.13.04.13.12s-.06.15-.13.15c-.09,0-.15-.06-.15-.15s.08-.12.15-.12M238.04,19.08c.22,0,.4-.18.4-.41s-.17-.39-.4-.39-.41.17-.41.39.18.41.41.41M254.19,22.13c.08,0,.17.07.17.18,0,.09-.09.17-.17.17-.1,0-.17-.08-.17-.17,0-.1.07-.18.17-.18M253.7,22.31c0,.26.22.48.49.48s.48-.22.48-.48-.22-.5-.48-.5c-.28,0-.49.22-.49.5M235.47,30.8c.1,0,.19.09.19.19s-.09.19-.19.19-.18-.09-.18-.19c0-.1.07-.19.18-.19M235.47,31.46c.26,0,.47-.21.47-.48s-.22-.48-.47-.48-.47.21-.47.48.2.48.47.48M237.06,30.72h2.03c.11,0,.19.08.19.19s-.09.2-.19.2h-2.03c-.11,0-.19-.09-.19-.2s.09-.19.19-.19M237.06,31.4h2.03c.27,0,.48-.23.48-.49s-.21-.47-.48-.47h-2.03c-.27,0-.48.21-.48.47s.21.49.48.49M247.31,68.22c.5-.18,1-.45,1.43-.81-.05-.05-.28-.25-.31-.29-.36.27-.77.49-1.23.65.02.05.09.37.11.46M248.83,58.01c-.07.08-.78.94-.78.94h0s-.06.07-.18.22c0,0-.05.04-.08.09.08.03.37.16.42.18.05-.04.29-.34.29-.34,0,0,.51-.6.59-.72-.03-.05-.2-.31-.26-.38M248.65,61.55h-1.26c.02.09.13.4.14.46h1.38s.1-.37.13-.46h-.39ZM248.91,60.47h-1.38c-.01.06-.12.36-.14.44h1.65c-.03-.08-.12-.39-.13-.44M246.99,63.86c.04.05.85,1,.88,1.04.04-.02.35-.16.43-.19-.06-.08-.91-1.05-1.06-1.24-.06.07-.22.35-.25.39M247.7,63.07c.07.08,1.02,1.21,1.06,1.25.05-.08.23-.34.25-.39-.03-.05-.84-1.01-.88-1.05-.04.02-.34.16-.43.19M247.32,58.87c.07-.08.8-.95.8-.95,0,0,.18-.21.26-.3-.1-.03-.4-.17-.44-.19-.05.05-.85,1.01-.88,1.05.04.05.22.33.26.39M243.64,59.29s-.88-1.03-1.06-1.24c-.05.08-.22.36-.25.4.04.05.82.98.88,1.05.05-.02.35-.15.43-.21M240.28,61.23c0-.18.14-.32.31-.32s.32.14.32.32c0,.16-.15.3-.32.3s-.31-.15-.31-.3M240.83,63.27v-1.3h.03c.21-.08.4-.25.49-.49l.02-.03h1.39v-.43c-.08,0-1.39,0-1.39,0v-.03c-.09-.24-.27-.42-.5-.5h-.04v-1.79h-.43v1.77h-.04c-.33.12-.55.43-.55.78s.23.64.55.74h.02v1.29c.08,0,.38.02.45.02M240.32,64.14c0-.06-.02-.46-.02-.46v-.77c-.08.03-.39.14-.44.16,0,.06.06,1.31.06,1.37.05,0,.36.09.47.1-.02-.1-.06-.4-.06-.4h0ZM243.94,60.47h-1.38c-.02.06-.1.36-.12.44h1.62c-.02-.08-.11-.39-.12-.44M244.21,63.48c-.08.07-.82.94-.82.94,0,0-.18.22-.24.3.08.03.37.17.42.19.05-.05.85-.99.9-1.04-.04-.05-.21-.32-.26-.39M246.06,64.92v1.23c.08-.02.39-.12.44-.12v-1.37s-.36-.1-.44-.12v.39ZM244.99,66.02c.05,0,.36.1.46.12v-1.61c-.1.02-.41.11-.46.12v1.37ZM244.08,61.53h-1.63c.02.08.09.4.12.45h1.38s.1-.37.13-.45M242.69,64.32s.88-1.04,1.06-1.25c-.08-.02-.37-.16-.42-.19-.05.04-.87,1-.91,1.05.02.04.22.32.26.39M242.7,67.41c.45.37.94.64,1.43.81.02-.08.1-.4.12-.46-.45-.16-.86-.37-1.22-.65-.04.04-.26.24-.33.29M237.22,53.47l-.07-.14-.2-.43h.28v-.46h-.38s0,0,0,0c0-.16.12-.29.27-.29.11,0,.21.06.24.14l.05.13.06-.13.15-.31h0c.05-.06.1-.19.1-.27,0-.29-.23-.53-.53-.53-.09,0-.18.03-.25.08.04-.14.07-.32.07-.51,0-.48-.42-.96-.44-.97l-.04-.06-.05.06s-.43.49-.43.97c0,.19.03.36.07.51-.08-.05-.18-.08-.28-.08-.27,0-.49.24-.49.53,0,.08.02.22.08.29h0s.14.3.14.3l.06.13.06-.13c.03-.09.12-.14.24-.14.14,0,.26.13.26.28h0s-.37,0-.37,0v.46h.3l-.21.42-.08.15.15-.07.28-.11.22.26.05.06.04-.06.22-.26.29.11.15.06ZM220.01,70.3h0c-.1,0-.2-.01-.29-.02,0,0-.02,0-.03,0-.09,0-.18-.03-.26-.05-.03,0-.05-.01-.08-.02-.06-.02-.12-.03-.18-.06-.09-.03-.16-.07-.24-.11-.35-.17-.78-.27-1.21-.27-.46,0-.9.09-1.23.27-.32.18-.73.27-1.17.27s-.86-.1-1.17-.28c-.32-.17-.75-.26-1.19-.26s-.85.09-1.21.26c-.08.05-.16.09-.24.12-.07.02-.15.05-.23.07-.01,0-.02,0-.04,0-.18.05-.39.07-.6.08v-.63c.1,0,.21,0,.31-.02.1-.01.21-.03.3-.06t0,0c.09-.03.19-.06.28-.09,0,0,0,0,0,0,.09-.03.18-.07.26-.11.33-.16.71-.25,1.14-.25s.83.09,1.12.25c.35.19.79.29,1.23.29.55,0,.98-.15,1.24-.28.31-.17.73-.26,1.17-.26s.83.1,1.14.26c.03.02.06.03.1.05.25.11.61.22,1.06.23v.63ZM220.01,71.86h-.02c-.09,0-.19,0-.28-.02,0,0-.02,0-.03,0-.09-.01-.17-.03-.25-.05-.03,0-.06-.02-.08-.02-.07-.02-.12-.04-.18-.06-.08-.03-.16-.07-.24-.11-.37-.19-.8-.28-1.21-.28-.43,0-.87.1-1.23.28-.24.13-.65.28-1.17.28s-.92-.15-1.17-.28c-.31-.18-.73-.28-1.18-.28s-.88.1-1.22.28c-.08.04-.16.08-.25.11-.07.03-.14.05-.22.07-.01,0-.03,0-.05.01-.19.05-.38.08-.58.08v-.64c.43,0,.85-.11,1.17-.29.32-.17.7-.25,1.14-.25s.83.09,1.12.25c.35.19.79.3,1.24.3.57,0,.99-.15,1.24-.28.3-.18.71-.27,1.17-.27s.84.09,1.14.26c.34.18.74.27,1.16.28v.64ZM212.04,66.87h6.59v1.49c-.28-.1-.6-.15-.92-.15-.34,0-.68.06-.97.16h-2.86c-.27-.1-.6-.16-.93-.16s-.64.05-.91.14v-1.48ZM212.88,65.85h4.91c0,.25.09.47.23.64h-5.37c.14-.17.23-.4.24-.64M220.16,68.75h-.08c-.41,0-.78-.08-1.07-.22v-2.03h-.17c-.38,0-.67-.29-.67-.66,0-.06,0-.11,0-.15v-.05s.07-.11.07-.17c0-.16-.13-.28-.31-.31,0,0,0,0-.01,0-.02,0-.03,0-.05,0h-5.11c-.16,0-.32.1-.36.25v.02s0,.03,0,.05c0,.06.02.13.07.18l.02.07s.03.09.03.12c0,.36-.29.66-.66.66h-.17v2.03c-.29.14-.68.22-1.09.22h-.08v4.04h.08c.45,0,.9-.11,1.24-.3.32-.16.71-.25,1.14-.25s.82.09,1.12.24c.35.2.79.31,1.23.31s.88-.1,1.24-.29c.32-.17.73-.26,1.17-.26.41,0,.82.09,1.14.26.33.19.76.29,1.22.29h.07v-.07s0-.78,0-.78v-.08s0,0,0,0v-.71s0-.07,0-.07h0v-.72s0-.07,0-.07h0v-.7s0-.07,0-.07h0v-.71s0-.07,0-.07ZM211.44,60.86c.18-.28.41-.54.41-.87,0-.5-.25-.95-.61-1.27-.63.41-.89.71-.89.81h0s.46.44.52.47c0,0,.4.61.57.87M212.9,57.89c-.1.03-.18.08-.27.12v7.05h5.39v-9.59c-.14.1-.28.17-.44.27v8.88h-4.53v-6.8c-.1.05-.16.08-.16.08M217.85,48.08s-.1,0-.26.03v4.41c.16-.1.3-.2.44-.29v-.02c1.09-.74,1.52-1.23,1.52-1.39v-.03c-.27-.23-.85-.4-1.52-.52v-2.18c-.07,0-.12,0-.17,0M212.79,54.81l.27-.1v-5.75c-.16.06-.3.12-.43.17v.48c-.33-.03-.93-.08-.93-.09-.73.43-1.15.88-1.15,1.26,0,.03,0,.06.02.09.07.47.87.8,2.05.92v3.1c.06-.02.12-.06.16-.07M265.59,70.3h0c-.1,0-.2-.01-.3-.02,0,0-.01,0-.02,0-.09,0-.18-.03-.26-.05-.03,0-.05-.01-.08-.02-.06-.02-.13-.03-.18-.06-.08-.03-.16-.07-.24-.11-.35-.17-.78-.27-1.21-.27-.46,0-.9.09-1.24.27-.32.18-.73.27-1.17.27s-.86-.1-1.17-.28c-.33-.17-.75-.26-1.19-.26s-.85.09-1.21.26c-.08.05-.15.09-.24.12-.08.02-.15.05-.23.07-.01,0-.02,0-.04,0-.18.05-.38.07-.59.08v-.63c.11,0,.21,0,.31-.02.1-.01.2-.03.3-.06,0,0,0,0,0,0,.1-.03.19-.06.28-.09,0,0,0,0,.01,0,.09-.03.17-.07.25-.11.33-.16.72-.25,1.15-.25s.82.09,1.12.25c.35.19.79.29,1.24.29.55,0,.97-.15,1.23-.28.32-.17.74-.26,1.17-.26s.83.1,1.14.26c.03.02.06.03.1.05.25.11.6.22,1.06.23v.63ZM265.59,71.86h-.02c-.1,0-.19,0-.28-.02,0,0-.02,0-.03,0-.09-.01-.17-.03-.25-.05-.03,0-.06-.02-.09-.02-.06-.02-.12-.04-.18-.06-.09-.03-.17-.07-.24-.11-.37-.19-.8-.28-1.21-.28s-.87.1-1.23.28c-.25.13-.65.28-1.17.28s-.92-.15-1.17-.28c-.31-.18-.73-.28-1.19-.28s-.87.1-1.21.28c-.08.04-.17.08-.26.11-.07.03-.14.05-.22.07-.02,0-.03,0-.05.01-.18.05-.38.08-.57.08v-.64c.42,0,.84-.11,1.16-.29.32-.17.71-.25,1.15-.25s.83.09,1.12.25c.35.19.79.3,1.24.3.57,0,.98-.15,1.23-.28.3-.18.72-.27,1.17-.27s.84.09,1.14.26c.34.18.74.27,1.16.28v.64ZM257.61,66.87h6.6v1.49c-.29-.1-.6-.15-.92-.15-.34,0-.67.06-.97.16h-2.86c-.28-.1-.6-.16-.93-.16s-.64.05-.91.14v-1.48ZM258.46,65.85h4.91c0,.25.09.47.23.64h-5.37c.14-.17.23-.4.24-.64M265.74,68.75h-.08c-.41,0-.78-.08-1.07-.22v-2.03h-.17c-.38,0-.67-.29-.67-.66,0-.06,0-.11.01-.15v-.05s.07-.11.07-.17c0-.16-.13-.28-.31-.31,0,0,0,0,0,0-.02,0-.04,0-.06,0h-5.11c-.16,0-.32.1-.36.25v.02s0,.03,0,.05c0,.06.02.13.06.18l.02.07s.03.09.03.12c0,.36-.3.66-.67.66h-.17v2.03c-.29.14-.68.22-1.09.22h-.07v4.04h.07c.45,0,.91-.11,1.24-.3.33-.16.72-.25,1.15-.25s.82.09,1.12.24c.36.2.8.31,1.24.31s.88-.1,1.23-.29c.32-.17.73-.26,1.17-.26.41,0,.82.09,1.15.26.33.19.76.29,1.22.29h.07v-.85s.01-.08.01-.08h-.01v-.71s.01-.07.01-.07h-.01v-.72s.01-.07.01-.07h-.01v-.7s.01-.07.01-.07h-.01v-.71s.01-.07.01-.07ZM258.18,55.47v9.59h5.39v-7.05c-.09-.04-.17-.09-.28-.12,0,0-.06-.03-.16-.08v6.8h-4.52v-8.88c-.16-.1-.29-.17-.44-.27M212.45,46.49l-.22.08.3.78c.08-.04.16-.08.22-.12.21-.13.23-.33.16-.49-.1-.24-.28-.33-.45-.26M263.14,48.96v5.75l.26.1s.1.05.17.07v-3.1c1.18-.12,1.99-.45,2.07-.92v-.09c0-.37-.41-.83-1.14-1.26,0,0-.6.07-.93.09v-.48c-.12-.05-.28-.11-.43-.17M258.62,52.51v-4.41c-.16-.02-.27-.03-.27-.03-.06,0-.1,0-.17,0v2.18c-.68.12-1.26.3-1.51.52,0,0,0,.02,0,.03,0,.16.43.65,1.52,1.39v.02c.15.09.28.19.44.29M264.96,58.71c-.35.32-.6.77-.6,1.27,0,.33.22.59.4.87.16-.26.58-.87.58-.87.06-.04.51-.46.51-.46h0c0-.1-.26-.41-.88-.82M263.29,55.11l-2.08-.9-.41-.18c-2.1-.97-3.7-2.04-4.2-2.76-.09.48-.18,1.25-.25,2.08,0,.02,0,.03,0,.06,0,.37,1.28,1.57,3.9,2.89l3.17,1.31c.9.34,2.03.96,2.5,1.5.11-.62.39-2.17.39-2.17,0,0,0-.03,0-.05,0-.2-.87-.93-3.02-1.77M238.82,54.14c-.1,0-.19.03-.27.08.03-.14.07-.32.07-.53,0-.46-.42-.95-.44-.97l-.05-.05-.05.05s-.42.51-.42.97c0,.2.03.38.06.53-.08-.05-.16-.08-.26-.08-.29,0-.53.23-.53.52,0,.08.04.17.07.24,0,.02.01.03.02.04h0s0,0,0,0l.16.31.07.12.05-.13c.04-.11.14-.13.23-.13.15,0,.27.11.27.26v.02h-.38v.47h.29l-.2.43-.07.15.15-.06.28-.12.22.26.05.06.05-.06.23-.27.29.13.15.06-.07-.15-.22-.43h.3v-.47h-.39v-.02c0-.15.13-.26.26-.26s.21.05.25.13l.06.11.06-.11.14-.31h0c.05-.07.09-.19.09-.28,0-.28-.23-.52-.51-.52M216.09,34.09c.05,0,.09.05.09.09,0,.04-.04.09-.09.09-.05,0-.09-.04-.09-.09,0-.05.04-.09.09-.09M216.09,34.36c.1,0,.19-.09.19-.18s-.08-.18-.19-.18c-.1,0-.18.09-.18.18s.09.18.18.18M216.58,34.33l.22.03.22.03s.1-.03.11-.08c0-.06-.03-.1-.08-.11l-.21-.04-.22-.04c-.06,0-.11.03-.12.09,0,.04.03.1.08.11M238.16,56.94c-1.82,0-3.29-1.86-3.29-4.15s1.48-4.14,3.29-4.14,3.31,1.85,3.31,4.14-1.48,4.15-3.31,4.15M238.16,48.27c-2.03,0-3.67,2.03-3.67,4.52s1.65,4.53,3.67,4.53,3.69-2.03,3.69-4.53-1.66-4.52-3.69-4.52M244.11,58.89c.06-.08.23-.34.26-.38-.04-.04-.86-.99-.89-1.05-.04.03-.34.16-.44.19.07.07.26.29.26.29,0,0,.74.87.81.95M245.44,56.75c-.09.03-.4.11-.46.14v1.36c.06.02.37.1.46.13v-1.64ZM245.77,60.82c.22,0,.41.18.41.41s-.19.41-.41.41c-.24,0-.42-.19-.42-.41,0-.24.18-.41.42-.41M243.8,58.68s-.26.24-.32.28c.03.04.12.14.12.14l.15.17s1.29,1.54,1.29,1.54h.02s-.08.19-.08.19h-.02s-1.26,0-1.26,0v.43h1.31l.02.07.06.12-.03.03s-1.43,1.69-1.49,1.75c.05.05.28.24.33.28.05-.06,1.51-1.75,1.51-1.75l.11.03v.03s0,2.88,0,2.88h.43v-2.88l.13-.07.02.02s1.38,1.67,1.43,1.73c.05-.04.26-.23.31-.28-.05-.06-1.44-1.76-1.44-1.76l.03-.07.06-.14h.04s1.15,0,1.22,0v-.43h-1.25l-.02-.03-.09-.21v-.03s1.27-1.5,1.27-1.5l.12-.13s.1-.11.14-.18c-.04-.04-.28-.23-.32-.28-.05.06-.45.52-.45.52l-1.09,1.32-.05-.02-.09-.02v-2.44h-.43v2.46l-.13.04h-.05s-1.13-1.33-1.13-1.33c0,0-.34-.4-.42-.49M212.79,57.59l3.16-1.31c2.62-1.32,3.9-2.52,3.9-2.89,0-.03,0-.04,0-.06-.07-.83-.16-1.59-.25-2.08-.5.71-2.1,1.79-4.21,2.76l-.39.18-2.08.9c-2.15.84-3.02,1.56-3.02,1.77,0,.02,0,.05,0,.05,0,0,.27,1.55.37,2.17.48-.54,1.6-1.16,2.52-1.5M246.49,56.89s-.36-.11-.44-.14v1.64c.08-.04.39-.11.44-.13v-1.36ZM215.04,34.25h.6c.07,0,.1-.04.1-.1,0-.05-.04-.1-.1-.1h-.6s-.1.05-.1.1c0,.06.05.1.1.1M212.13,35.42h6.42v1.51h-6.42v-1.51ZM215.34,34.69c-.75,0-1.42.07-1.94.22.22.06.47.1.75.13h-.48c-.07,0-.14-.03-.19-.04-.17-.05-.22-.12-.22-.15,0-.03.03-.05.06-.07.15-.05.31-.09.47-.12.43-.08.98-.13,1.53-.13h.12c.75,0,1.49.1,1.9.25.03.01.05.04.05.07.02.08-.18.14-.22.15-.05.01-.11.03-.19.04h-.47c.27-.03.52-.08.75-.13-.53-.14-1.2-.22-1.93-.22M213.14,34.21c.56-.16,1.34-.26,2.2-.26s1.63.1,2.19.27c-.02.03-.03.06-.05.1l-.2.02.1.18s-.02.04-.02.06h0c-.51-.14-1.15-.22-1.91-.23h-.12c-.78,0-1.56.1-2.03.25,0-.02-.01-.05-.02-.07l.09-.16-.16-.03s-.04-.09-.06-.12M212.96,34.11s-.02-.01-.02-.02c0,0,0-.01,0-.02,0-.02,0-.03.01-.03.6-.19,1.44-.32,2.39-.32s1.77.13,2.37.32c0,0,.02.01.02.04h0s-.03.04-.05.03c-.58-.18-1.43-.3-2.34-.3-.76,0-1.63.09-2.37.31M213.32,33.84c-.06.01-.12.03-.18.05.02-.03.04-.06.06-.09.04.02.08.03.12.04M214.04,33.7c-.11.01-.22.03-.32.05.06-.04.11-.09.15-.15.05.04.11.08.17.1M214.71,33.64c-.08,0-.15,0-.23.01.04-.02.08-.05.11-.09.04.03.08.06.12.08M215.49,33.62h-.31c.06-.03.12-.08.16-.13.04.05.09.09.15.13M216.19,33.66c-.08,0-.16,0-.24-.01.04-.02.08-.04.11-.08.04.04.08.07.12.09M216.95,33.75c-.1-.01-.21-.04-.33-.05.07-.02.13-.06.18-.1.04.06.09.11.15.15M217.54,33.89c-.06-.02-.12-.04-.19-.05.05,0,.09-.02.13-.04.02.03.04.06.07.09M212.71,33.82c-.08-.04-.2-.18-.27-.26.02-.02.02-.05.02-.07.04.03.08.07.11.11.16.14.28.13.28.13.11-.02.15-.11.15-.23h0s-.02-.02-.04-.03c0-.02-.02-.02-.02-.05-.03-.07,0-.13.02-.14.05,0,.1.03.12.09v.07s0,.04-.02.05h0c.07.09.17.14.28.14.17,0,.32-.13.32-.31,0-.04,0-.09,0-.11,0,0,.03,0,.03,0,.05,0,.09-.02.12-.05h0c0,.22.16.39.38.39.17,0,.32-.11.37-.28.06.13.19.23.35.23.2,0,.38-.17.38-.38v-.04h.06s0,.02,0,.04c0,.21.18.38.39.38.15,0,.29-.1.35-.23.03.18.2.29.38.29.2,0,.35-.16.37-.36.02,0,.05.02.07.02.01,0,.03,0,.04,0,0,.03,0,.08,0,.11,0,.18.15.31.33.31.11,0,.21-.06.28-.13h0s-.03-.03-.03-.06v-.07c.03-.05.08-.09.12-.09.02.02.06.07.02.14,0,.03,0,.03-.02.05-.01.02-.02.02-.03.02h0c0,.13.03.22.15.24,0,0,.12.01.28-.13.04-.04.08-.08.11-.11,0,.03,0,.06.03.08h0c-.06.09-.14.2-.22.25-.08.06-.2.1-.26.09-.1-.02-.16-.12-.2-.2-.09.04-.17.07-.27.07-.21,0-.33-.12-.42-.29-.1.11-.21.18-.36.18s-.28-.09-.39-.19c-.09.09-.19.15-.32.15-.2,0-.31-.1-.41-.26-.09.16-.22.26-.41.26-.14,0-.24-.06-.34-.15-.1.12-.22.19-.39.19-.15,0-.26-.07-.36-.18-.09.17-.22.29-.42.29-.1,0-.18-.03-.27-.07-.04.1-.09.19-.2.21-.08.02-.2-.04-.25-.09M212.34,33.34l.25-.23.15.1-.03.17-.29.03s-.07-.06-.08-.07M212.38,33.52s-.06.03-.11,0c-.05-.05-.04-.09-.03-.11.02-.02.07-.02.1.02.07.05.05.1.05.1M212.21,33.34s-.02.02-.03.03l-.04-.06s-.07-.09-.11-.13c-.04-.04-.09-.07-.14-.08h-.03s.08-.04.11-.04c.1,0,.1.04.15.13l.02-.12s.04.03.06.06c.02.06.02.15,0,.21M213.89,32.49c.06.08.11.15.17.24l-.24.14.08-.38ZM213.57,32.38l-.04.03c-.28-.38-.54-.65-.7-.73.21-.06.62.24,1.04.8l-.31-.1ZM213.7,32.9c.06,0,.11.06.11.11,0,.07-.05.11-.11.11-.06,0-.1-.04-.1-.11,0-.06.05-.11.1-.11M213.42,32.62l.17-.16.21.08-.06.29s-.03,0-.04,0c-.04,0-.08.02-.11.04l-.17-.25ZM213.54,33.11l-.24.14-.12-.12.07-.16.28.03v.02s0,.07.02.1M213.86,32.93l.25-.14.12.13-.06.16-.29-.03v-.03s0-.06-.02-.08M214.6,33.09c0,.07-.03.09-.03.09-.04,0-.06-.06-.06-.07,0-.05.02-.09.04-.1.02,0,.05.03.06.08M212.86,31.44c.37-.23,1.1.32,1.68,1.21.04.09.09.16.13.24h.04s.16.22.16.22l.33-.1s.01,0,.02.01c0,.03,0,.06,0,.09,0,.17-.14.3-.3.3-.13,0-.23-.08-.28-.18.03-.04.04-.1.04-.14-.01-.07-.07-.16-.16-.14-.07.03-.09.11-.09.18,0,.04.03.09.07.11-.04.13-.14.24-.29.24-.18,0-.3-.14-.3-.3v-.04l.32.04.1-.26-.1-.11c-.51-.79-1.14-1.37-1.47-1.12,0,0-.01,0-.02,0,.02-.11.07-.18.14-.24M214.9,32.72l.26.09s-.02.04-.02.07c0,.02,0,.04.02.06l-.27.08-.09-.13.1-.16ZM215.11,31.16h.01c-.05.23-.08.48-.08.58,0,.08,0,.29.02.46-.05-.1-.09-.24-.09-.46,0-.23.06-.49.12-.58M215.53,30.98c-.04.07-.11.12-.2.12s-.16-.05-.2-.12h.4ZM215.16,30.81h.14v-.5h-.19v-.08h.19v-.19h.07v.19h.2v.08h-.2v.5h.13v.06h-.34v-.06ZM215.66,31.74c0,.22-.03.35-.08.46.02-.16.02-.38.02-.46,0-.09-.03-.35-.07-.57h.01c.06.09.12.34.12.57M215.76,32.72l.1.16-.1.13-.27-.08s.02-.05.02-.06c0-.03,0-.06-.02-.08l.26-.08ZM215.34,32.76s.1.05.1.11-.06.11-.1.11c-.06,0-.12-.06-.12-.11,0-.06.06-.11.12-.11M215.23,31.74c0-.19.02-.36.05-.48.02,0,.03,0,.06,0,.02,0,.03,0,.05,0,.03.11.04.28.04.48,0,.18-.01.34-.04.46l-.04-.04-.05.04c-.04-.12-.06-.28-.06-.46M215.34,32.25l.2.14-.13.31s-.05-.01-.07-.01c-.03,0-.06,0-.09.02l-.14-.31.22-.14ZM216.15,33.11c-.02.06-.05.07-.06.07-.02-.02-.03-.06-.03-.08,0-.04.03-.07.05-.06.02,0,.04.02.03.08M216.73,33.04l-.29.03-.06-.16.12-.13.25.14s-.02.06-.02.08v.03ZM217.07,32.41l-.04-.03-.31.11.07.38-.25-.15c.48-.72.99-1.12,1.22-1.03-.16.08-.41.35-.69.72M217.09,32.99l.28-.03.07.16-.12.12-.24-.14s.02-.06.02-.1v-.02ZM217.02,33.01c0,.07-.05.11-.11.11-.06,0-.11-.04-.11-.11,0-.06.05-.11.11-.11s.11.06.11.11M216.91,32.82s-.02,0-.04,0l-.06-.29.21-.08.17.16-.16.25s-.07-.04-.11-.04M215.96,32.89c.04-.09.07-.15.12-.24.57-.88,1.31-1.44,1.67-1.21.07.05.11.13.14.24,0,0-.02,0-.04,0-.33-.25-.98.36-1.49,1.16l-.07.07.1.26.37-.04v.04c0,.17-.12.3-.29.3s-.27-.09-.3-.24c.03-.03.05-.07.06-.11.01-.07-.01-.15-.09-.17-.08,0-.14.06-.14.14,0,.03,0,.08.03.12-.05.12-.15.2-.28.2-.16,0-.31-.14-.31-.3,0-.04,0-.06.01-.09,0,0,.01,0,.02-.01l.32.1.16-.22h0ZM218.02,33.11l.25.23s-.07.05-.08.07l-.28-.03-.03-.17.15-.1ZM218.37,33.4s.02.07-.03.11c-.05.03-.09.03-.11,0,0,0-.02-.05.05-.1.03-.04.08-.04.1-.02M218.4,33.13s.03-.04.06-.06l.03.12c.05-.09.04-.13.15-.13.04,0,.08.01.11.03h-.03s-.1.05-.14.09c-.04.04-.08.09-.11.13l-.05.06s0-.02-.02-.03c-.01-.06-.02-.15,0-.21M217.87,37.36h-5.11s-.07-.01-.09-.03c.02-.01.05-.02.09-.02h5.11s.08,0,.1.02c-.02.01-.05.03-.1.03M217.56,38.16h-4.45c.02-.06.04-.13.04-.2,0-.08-.02-.15-.04-.21h4.46c-.02.07-.04.14-.04.21s.01.14.03.2M217.92,38.55s.02,0,.03,0c.02.02.03.03.03.05,0,.03-.05.06-.11.06h-5.11c-.06,0-.11-.04-.11-.06,0-.02.05-.07.11-.07h5.11s.03,0,.05.01M212.27,37.33c0,.16.12.31.29.37h0s0,0,0,0h.04c.1.04.16.14.16.25,0,.1-.07.2-.17.23,0,0-.01,0-.02,0-.17.07-.3.23-.3.41,0,.2.15.37.35.43v6.43c.13-.04.28-.09.43-.13v-5.96h4.53v5.31c.13-.01.23-.02.23-.02.07,0,.13,0,.2,0v-5.64c.2-.06.34-.22.34-.42,0-.18-.12-.33-.29-.41h0c-.1-.04-.17-.13-.17-.25s.09-.22.17-.24h0c.17-.08.29-.22.29-.39,0,0,0-.01,0-.01h.56v-2.27h-1.42c.06-.06.1-.13.08-.23,0-.05-.03-.09-.07-.13.01-.03.03-.06.04-.09l.15-.04-.07-.14c.04-.08.09-.16.11-.22.03-.01.06-.04.07-.07,0-.04,0-.1-.03-.14.08-.01.16-.05.22-.09.09-.06.17-.18.25-.27.05,0,.1,0,.13-.05.04-.04.07-.08.07-.12l.07-.09s.07-.09.1-.12c.02-.02.07-.04.11-.06.04-.01.1-.03.1-.03v-.03c0-.06-.09-.1-.15-.12.01-.02.03-.04.03-.06.04-.12.04-.32,0-.42,0,0-.03-.1-.03-.1-.02-.08-.06-.17-.12-.26-.09-.15-.21-.3-.4-.39l-.15-.1s-.05-.03-.07-.04c-.03-.13-.08-.2-.18-.26-.15-.1-.36-.07-.6.03-.15-.03-.33-.07-.35-.08-.07-.04-.31-.12-.47-.15h-.25s-.1,0-.1,0h-.28s-.06-.1-.09-.16c.01-.04.03-.09.03-.13,0-.14-.08-.26-.19-.31v-.16h.19v-.3h-.19v-.2h-.29v.2h-.19v.3h.19v.16c-.11.06-.19.17-.19.31,0,.04,0,.08.02.12-.04.06-.07.12-.1.18h-.32s-.1-.02-.1-.02h-.25c-.16.03-.41.11-.47.15-.02.01-.2.05-.35.08-.24-.1-.45-.13-.6-.03-.09.06-.14.13-.17.26-.02.01-.04.03-.07.04l-.16.1c-.19.09-.3.24-.39.39-.07.09-.1.18-.12.26,0,0-.03.09-.03.1-.04.1-.04.29,0,.42,0,.02.01.04.03.06-.07.01-.16.06-.16.12v.03s.07.02.11.03c.04.02.09.04.11.06.04.04.08.08.11.12l.07.09s.02.08.07.12c.04.05.1.06.16.04.07.09.19.22.29.28.05.04.13.08.21.09-.03.03-.04.07-.03.12.02.09.07.1.07.1.05.07.07.12.1.19l-.08.16.16.05s.02.07.03.1c-.03.04-.04.07-.06.11-.01.1.03.17.09.23h-1.4v2.27h.53v.02ZM214.57,34.09s.09.05.09.09c0,.04-.04.09-.09.09s-.09-.04-.09-.09c0-.05.04-.09.09-.09M214.57,34.36c.09,0,.19-.08.19-.18s-.09-.18-.19-.18c-.11,0-.18.09-.18.18s.08.18.18.18M240.43,51.19c-.09,0-.18.03-.26.08.03-.15.06-.32.06-.51,0-.48-.41-.96-.43-.97l-.05-.06-.05.06s-.44.49-.44.97c0,.19.04.36.07.5-.08-.05-.17-.08-.26-.08-.29,0-.53.24-.53.53,0,.09.07.23.08.27,0,0,.16.31.16.31l.05.1.06-.1c.04-.07.11-.15.24-.15.15,0,.27.13.27.28h0s-.39,0-.39,0v.46h.3l-.2.43-.07.14.15-.06.28-.11.22.26.05.06.05-.06.22-.26.29.11.15.06-.07-.14-.21-.43h.29v-.46h-.39c0-.16.12-.29.27-.29.11,0,.21.06.26.15l.06.11.06-.11.14-.31c.05-.1.09-.2.09-.27,0-.29-.23-.53-.52-.53M213.64,34.39l.21-.03.21-.03s.09-.08.09-.11c-.01-.06-.06-.09-.1-.09l-.23.04-.21.04c-.06.01-.1.05-.08.11,0,.05.05.09.11.08M249.04,55.57h-1.63c.03.08.12.39.13.45h1.37c.01-.06.11-.38.12-.45M257.5,32.35c.09,0,.15-.08.15-.16s-.07-.15-.15-.15c-.09,0-.16.07-.16.15s.07.16.16.16M264.88,48.18l.08-.76-.64.44.56.32ZM265.4,49.38l-.02.15-.25-.16-.15-.08-.21-.12-.05-.02-.06-.04s.09-.59.09-.67c-.08-.05-.53-.31-.61-.35-.03.04-.47.36-.47.36l-.05.04-.17-.11s-.03-.02-.03,0l-.05-.03-.04-.02s-.49-.13-.5-.13l-.18-.05-.18-.02-.3-.77s-.04-.11-.04-.14c-.07.28-.17.69-.17.69v.1s-.21-.06-.21-.06c0,0-.16-.04-.17-.04l-.36-.07.51-2.13.02-.09.83.2h.05c.18.04.39.1.54.2.18.14.27.29.27.46,0,.05-.02.1-.02.14-.07.28-.31.44-.64.47.12.25.38.84.38.85l.09.2,1.96-1.31h.08s.14.08.14.08l.07.04.1.04-.18,2.39ZM260.66,45.83c-.02.17-.16,1.77-.16,1.77v.1l-.17-.03-.19-.02h-.14s-.22-.01-.22-.01c0,0,.15-1.69.16-1.86-.13,0-.46,0-.46,0h-.23s.06-.17.06-.17v-.05s0-.11,0-.11v-.12s1.95.18,1.95.18h.11l-.05.16s0,.06,0,.04l.02.25-.19-.03s-.34-.05-.47-.07M259.32,47.56l-1.57-.02.04-2.15v-.09s.21,0,.21,0h.14s.37,0,.37,0c0,0-.03,1.66-.03,1.83.14,0,.72-.02.72-.02h.11s-.02.16-.02.16v.06s.02.22.02.22ZM257.19,45.72c-.2.61-.41,1.24-.56,1.9l-.02.07-.14.02h-.08l-.14.03-.06.02-1.32-1.97-.09-.13.25-.03.2-.03.21-.03.11-.03h.07s.57.93.57.93c0,0,.12.18.22.33.15-.51.27-.97.37-1.4l.03-.06s.21-.03.24-.04l.13-.02.16-.04-.15.46ZM253.16,52.56h-9.74s0-.09,0-.14c0-.05,0-.1,0-.15s0-.1-.01-.15c0-.05,0-.1-.02-.14,0-.05-.01-.1-.02-.15,0-.05,0-.1-.02-.14,0-.05-.01-.1-.02-.15-.01-.05-.02-.1-.03-.14,0-.05-.02-.09-.03-.14,0-.05-.02-.1-.03-.14-.01-.05-.03-.1-.04-.15-.01-.04-.03-.09-.04-.13-.01-.05-.03-.1-.04-.14-.01-.04-.03-.09-.04-.14-.02-.05-.03-.09-.05-.13-.02-.05-.03-.1-.05-.14-.01-.04-.04-.09-.05-.13-.02-.05-.04-.09-.05-.13-.02-.05-.04-.09-.06-.12-.02-.05-.04-.09-.06-.13s-.04-.08-.06-.12c-.02-.04-.04-.08-.06-.12-.02-.04-.05-.08-.07-.12-.02-.04-.05-.08-.07-.12-.02-.04-.04-.08-.07-.11-.02-.04-.05-.08-.08-.12-.02-.03-.05-.08-.07-.11-.03-.04-.05-.08-.08-.11-.02-.04-.05-.07-.08-.11-.03-.03-.06-.08-.09-.1-.03-.04-.05-.07-.08-.1-.03-.04-.06-.07-.09-.11-.03-.03-.05-.06-.09-.09-.03-.03-.06-.07-.09-.1-.03-.03-.06-.06-.09-.09-.03-.03-.06-.07-.1-.09-.03-.03-.06-.06-.09-.09-.03-.03-.07-.06-.1-.09-.03-.03-.06-.06-.1-.08-.04-.03-.07-.06-.1-.09-.03-.03-.06-.05-.1-.08-.03-.03-.07-.06-.11-.09-.03-.02-.07-.05-.1-.07-.04-.03-.08-.05-.11-.08-.03-.02-.07-.04-.1-.07-.04-.02-.08-.05-.12-.07-.03-.02-.07-.04-.1-.06-.04-.02-.08-.04-.12-.06-.04-.02-.07-.04-.1-.06-.04-.02-.08-.04-.12-.06-.03-.02-.07-.03-.11-.05-.04-.02-.09-.03-.13-.05-.04-.01-.07-.03-.11-.04-.05-.02-.09-.03-.13-.04-.04-.01-.07-.03-.1-.04-.05,0-.09-.03-.14-.04-.04,0-.07-.02-.11-.03-.05,0-.09-.02-.14-.03-.04,0-.08-.02-.11-.02-.05,0-.1-.01-.16-.02-.03,0-.06,0-.09-.01-.09,0-.17-.02-.26-.02v-11.33c.47,0,.95-.02,1.41-.04h13.33v17.33ZM253.16,63.65c0,1.15-.26,2.26-.73,3.25-1.21,2.43-3.73,4.11-6.63,4.11-4.06,0-7.37-3.31-7.37-7.38,0,0,.01-3.56.02-4.63.02,0,.03,0,.05,0,.07,0,.13-.01.2-.02.03,0,.06,0,.09-.02.05,0,.1-.01.16-.02.05,0,.09-.02.14-.03.04,0,.07-.01.1-.02.07-.02.14-.03.21-.05.01,0,.02,0,.03,0,.15-.04.3-.1.44-.15v.25c.06.01.37.11.44.13v-.4s0-.09,0-.19c.22-.11.42-.24.62-.39v.99c.09-.02.4-.12.45-.14v-1.22c.19-.17.38-.37.55-.58.29.35.92,1.08.96,1.12.05-.03.27-.23.32-.27-.05-.06-.27-.31-.27-.31,0,0-.47-.58-.75-.89,0,0,.02-.03.03-.04,0,0,0-.01,0-.02.05-.07.09-.14.13-.21.01-.03.03-.05.05-.08.04-.07.09-.14.12-.21.02-.02.03-.05.04-.07.02-.05.05-.1.07-.15h1.27c.02-.06.12-.38.14-.45h-1.2c.04-.08.07-.17.11-.26.01-.04.03-.08.04-.12.03-.08.05-.15.08-.22t0,0h.97c-.02-.1-.12-.41-.14-.45h-.7s0,0,0-.02c.02-.08.03-.14.05-.22,0-.06.02-.11.04-.17.02-.12.04-.24.05-.36,0-.05.01-.1.02-.14,0-.13.03-.26.03-.4h9.75v10.44ZM238.18,72.92c-2.59,0-5.27-.45-7.78-1.3h.07c2.74,0,5.15-1.39,6.59-3.5l.09.1s.06.06.11.12c-.57.2-.83.83-.83,1.4,0,.8.68,1.44,1.6,1.54.02.12.03.29.02.47-.35-.24-1.21-.81-1.64-.9-.49-.1-1.02-.07-1.4-.05-.15,0-.29.02-.38.02l-.03.19h-.02s.38.27.54.43c.17.19.76.56,1.09.65.77.21,1.49.07,1.8,0-.06.31-.16.59-.16.59l-.07.19.19-.07c.05-.02.17-.07.22-.1.06-.02.18-.04.22-.04h.07s0-.09,0-.09c0-.02.03-.23.04-.48.08-.01.24-.04.24-.04.05,0,.23,0,.43.02.29.02.7.04,1.08.04.61,0,1.04-.31,1.24-.47.03-.02.06-.04.08-.06.16-.13.47-.28.47-.28l.23-.1-.25-.08-.13-.03c-.4-.12-1.01-.29-1.88-.16-.63.1-1.23.6-1.51.86,0-.19-.03-.38-.06-.51.91-.1,1.59-.73,1.59-1.54,0-.3-.09-.58-.24-.82,1.47,1.65,3.6,2.69,5.97,2.69.05,0,.09,0,.14,0-2.51.86-5.14,1.3-7.76,1.3M229.55,53.21h1.81v17.74c-.29.04-.6.06-.9.06s-.61-.02-.91-.06v-17.74ZM227.93,70.56c-.65-.24-1.25-.57-1.8-.97v-16.38h1.8v17.35ZM229.1,44.79v1.07h-.88v-1.07c0-.25.19-.46.44-.46s.44.21.44.46M232.71,44.79v1.07h-.88v-1.07c0-.25.19-.46.42-.46.26,0,.46.21.46.46M223.11,52.56v-17.33h13.2c.49.02.99.03,1.49.04v11.34s-.05,0-.07,0c-.05,0-.1,0-.15.01-.04,0-.08.01-.11.02-.05,0-.09,0-.14.02-.04,0-.07.02-.11.03-.05,0-.09.02-.14.03-.03,0-.07.02-.1.03-.05,0-.1.03-.14.04-.03,0-.06.02-.09.03-.05.02-.1.03-.15.05-.02,0-.04.01-.06.02-.67.25-1.28.66-1.8,1.19h-1.18v-4.72h.63v-2.09h-1.01v-1.46h.4v-1.09h-.36v.31h-.43v-.31h-.48v.31h-.42v-.31h-.37v1.09h.41v1.46h-.84v-3.16h.59v-1.22h-.39v.29h-.48v-.29h-.58v.29h-.53v-.29h-.36v1.22h.53v3.16h-.87v-1.46h.42v-1.09h-.39v.31h-.39v-.31h-.48v.31h-.44v-.31h-.36v1.09h.41v1.46h-.94v2.09h.55v4.72h-1.22v2.31h3.5v-1.41c0-.47.35-.84.8-.84.48,0,.85.37.85.84v1.41h2.01c-.03.06-.05.13-.07.2,0,0,0,0,0,.01-.03.08-.05.17-.08.25,0,0,0,.02,0,.03-.03.08-.04.15-.06.24,0,.01,0,.03-.01.05-.02.08-.03.15-.05.23,0,.02,0,.05-.02.07-.01.07-.03.14-.03.21,0,.03,0,.06-.01.1-.01.06-.02.13-.03.2,0,.04,0,.08-.01.12,0,.06,0,.12-.02.17,0,.05,0,.1,0,.15,0,.05,0,.1,0,.14h-9.78ZM224.52,67.96c-.88-1.22-1.41-2.71-1.41-4.33v-10.42h1.41v14.75ZM238.07,34.47c-2.98,0-5.87-.34-8.2-.93,2.31-.56,5.19-.87,8.2-.88,3,0,5.9.32,8.21.88-2.35.59-5.24.92-8.21.93M234.78,57.58v12.02c-.55.4-1.16.73-1.81.97v-16.7c.07.5.19.98.36,1.42.33.9.83,1.68,1.45,2.3M238.16,58.39s-.09,0-.13,0h-.12s-.05,0-.07-.01c-1.71-.14-3.18-1.41-3.88-3.2h0c-.03-.08-.06-.15-.09-.23,0,0,0,0,0-.01-.03-.08-.05-.15-.08-.23,0,0,0-.01,0-.02-.02-.08-.04-.15-.06-.22,0-.01,0-.02,0-.03-.02-.08-.04-.15-.05-.22,0-.01,0-.03,0-.04-.01-.07-.03-.14-.04-.21,0-.02,0-.04-.01-.06,0-.07-.02-.13-.03-.21,0-.02,0-.04,0-.07,0-.06-.02-.13-.03-.2,0-.03,0-.05,0-.07,0-.07,0-.13-.01-.2,0-.03,0-.06,0-.09,0-.06,0-.13,0-.2v-.31h-.01c0-.06,0-.13.01-.19,0-.02,0-.04,0-.06,0-.08,0-.16.02-.24,0,0,0-.03,0-.03.19-1.7,1.03-3.17,2.21-4.02,0,0,.02-.01.02-.02.05-.04.09-.07.14-.1.02-.01.04-.02.06-.04.04-.02.08-.05.11-.07.03-.02.06-.03.09-.05.03-.02.06-.03.09-.05.04-.02.08-.04.11-.06.02,0,.04-.02.07-.03.05-.02.1-.05.14-.07.02,0,.03,0,.05-.02.06-.02.11-.05.17-.07,0,0,.01,0,.02-.01.07-.02.13-.05.2-.06,0,0,0,0,.01,0,.07-.02.14-.04.2-.06,0,0,0,0,.01,0,.07-.02.14-.03.21-.05h.02c.07-.01.13-.02.21-.03,0,0,.02,0,.03,0,.06,0,.13-.01.19-.02h.07c.06,0,.12,0,.18,0,2.56,0,4.65,2.5,4.65,5.58,0,.65-.09,1.27-.26,1.85,0,0,0,.02,0,.02-.02.09-.05.16-.08.24,0,.02-.02.04-.02.06-.02.07-.05.13-.07.19-.01.03-.03.06-.04.09-.02.05-.04.09-.06.14-.02.04-.04.08-.05.12,0,.02-.01.03-.02.04-.77,1.62-2.18,2.73-3.81,2.84-.08,0-.16,0-.24,0M236.4,67.99v-9.33c.3.12.62.22.95.27.06.02.13.03.19.04.02,0,.03,0,.05,0,.02,0,.03,0,.05,0,.04,0,.08,0,.13.01.02,0,.03,0,.05,0v4.63c0,1.63-.53,3.13-1.42,4.36M238.98,67.82s-.16.04-.29.09h0s0,.01,0,.01c-.02,0-.05.02-.07.04-.07-.11-.18-.23-.2-.25l-.1-.1-.12.07s-.16.08-.28.21h0s0,0,0,0c-.02.03-.04.06-.06.09-.03-.02-.06-.04-.1-.05h-.01s-.01,0-.01,0c-.16-.05-.41-.03-.45-.02h-.07c.41-.64.73-1.34.95-2.09.2.7.5,1.38.88,1.99h-.03ZM239.12,68.34s0-.02,0-.03c.03-.06.05-.14.07-.2.12.18.25.35.39.52-.13-.12-.28-.22-.46-.29M239.69,69.75c0,.61-.55,1.1-1.28,1.16.27-.31.42-.72.42-1.16,0-.48-.19-.94-.51-1.26l-.07-.06-.07.06c-.33.32-.52.78-.52,1.26,0,.44.15.85.42,1.16-.72-.07-1.27-.56-1.27-1.16,0-.49.24-1.04.76-1.07l.27-.02-.11-.25-.02-.06s.05.04.05.04l.17.17s.12-.2.12-.2c0,0,.08-.12.15-.22.02-.02.03-.03.05-.04.01.02.03.04.04.06h0s0,.02,0,.02c.02.03.05.09.05.12l.08.26.22-.17s.06-.05.1-.08c0,.07,0,.12,0,.15v.14l.13.04c.52.16.82.58.82,1.11M228.61,33.75c-.1-.04-.15-.13-.15-.27,0-.11.06-.21.14-.24,2.37-.73,5.51-1.18,8.76-1.23,0,0,.02,0,.02,0h.31c.12,0,.24,0,.36,0,3.17,0,6.29.37,8.73,1.02.25.07.5.14.74.21.11.03.16.15.16.24,0,.13-.06.23-.16.27-1.15.36-2.51.65-4,.86h-2.16c2.02-.17,3.92-.48,5.53-.93l.49-.14-.5-.13c-2.43-.66-5.55-1.03-8.82-1.03-3.26,0-6.39.37-8.81,1.03l-.5.13.5.14c1.6.45,3.5.76,5.52.93h-2.16c-1.49-.21-2.85-.49-4-.86M228.44,32.32l-.16-.07-.19-.09.21-.29.61.07-.47.39ZM228.09,31.38c.1-.03.19-.06.29-.08.11-.03.22-.07.34-.09.03,0,.06-.02.08-.02,2.61-.66,5.85-1.03,9.27-1.03,3.75,0,7.3.44,10.02,1.23-.06.05-.11.1-.17.17h-.03l-1.03.13-.35.05.28.21.71.54c-.05.16-.08.3-.08.42,0,0,0,0,0,.01-2.49-.77-5.8-1.2-9.36-1.2h-.03c-.15,0-.31,0-.46,0-3.37.04-6.49.46-8.87,1.2,0,0,0-.01,0-.02,0-.12-.03-.26-.07-.41l.7-.56.27-.2-.34-.05-1.04-.13h0c-.06-.07-.12-.12-.18-.17.01,0,.03,0,.04,0M227.57,31.21s-.16.02-.22-.1c-.04-.13.1-.23.1-.23,2.35-.76,5.42-1.23,8.79-1.36h0s.03,0,.04,0c.59-.02,1.18-.04,1.78-.04,4.01,0,7.88.52,10.61,1.4,0,0,.15.09.11.22-.02.09-.12.14-.21.11-2.82-.87-6.54-1.37-10.51-1.37s-7.69.49-10.5,1.37M228.88,30.14c-.17.04-.33.08-.49.13.06-.09.11-.18.16-.28.11.06.22.1.33.15M232.14,29.53c-.37.05-.73.1-1.08.16.19-.16.35-.36.47-.58.18.18.39.32.61.42M235.19,29.24c-.26.02-.52.04-.77.06.13-.09.26-.2.36-.32.13.1.27.19.41.27M238.67,29.16c-.2,0-.4,0-.6,0s-.39,0-.59,0c.23-.14.43-.32.59-.53.17.21.37.4.6.53M241.74,29.3c-.26-.02-.52-.04-.79-.06.14-.08.28-.16.41-.27.11.12.24.23.37.32M245.1,29.7c-.35-.06-.72-.11-1.09-.16.23-.1.44-.24.63-.42.12.22.28.42.47.59M247.78,30.28c-.17-.05-.34-.09-.51-.14.12-.04.24-.09.35-.15.05.1.11.2.17.29M226.33,30.16c-.4-.26-.77-.76-.95-1,.04-.05.07-.1.09-.17.17.17.37.35.62.58.74.6,1.32.58,1.34.57.51-.08.82-.51.82-1.17h.01s.02.02.02.02l-.02-.02c.29.44.78.7,1.32.7.88,0,1.6-.71,1.6-1.59,0-.15-.03-.3-.06-.45h0c.1,0,.21-.03.29-.06.06.86.78,1.54,1.65,1.54s1.53-.57,1.65-1.37c.23.66.85,1.11,1.55,1.11.92,0,1.67-.75,1.67-1.66,0-.08,0-.14-.01-.22.06.01.1.03.16.03.06,0,.11-.02.17-.03,0,.07,0,.14,0,.22,0,.92.75,1.66,1.66,1.66.67,0,1.26-.42,1.52-1.03h.02v.02s.02,0,.04,0c.16.75.81,1.27,1.6,1.27.88,0,1.6-.69,1.66-1.55.1.04.21.06.31.06-.04.14-.07.29-.07.45,0,.87.72,1.59,1.61,1.59.54,0,1.02-.27,1.31-.69h0s0,0,0,0c0,.66.32,1.09.82,1.17.04,0,.59.03,1.34-.57.27-.24.47-.42.62-.58.02.06.05.12.1.17-.23.31-.58.77-.97,1.01-.16.1-.74.41-1.19.34-.32-.07-.63-.36-.79-.79l-.07-.18-.17.1c-.3.2-.63.29-.98.29-.79,0-1.5-.46-1.78-1.15l-.1-.24-.17.2c-.39.44-.89.66-1.47.66-.62,0-1.21-.28-1.59-.75l-.11-.13-.12.12c-.37.35-.86.54-1.36.54-.03,0-.06,0-.09,0-.65-.02-1.27-.35-1.61-.9l-.14-.2-.14.2c-.33.54-.93.87-1.58.9-.04,0-.08,0-.12,0-.5,0-.99-.2-1.35-.54l-.12-.12-.11.14c-.32.41-.81.67-1.34.74h-.05c-.07,0-.14,0-.21,0-.58,0-1.1-.23-1.45-.66l-.18-.2-.1.24c-.27.69-1,1.15-1.78,1.15-.36,0-.71-.1-.99-.29l-.17-.11-.08.19c-.16.44-.46.72-.81.79-.29.04-.7-.07-1.19-.35M225.19,28.26s-.1-.07-.15-.1c.03-.1.11-.25.19-.38.07-.08.25-.24.7-.49.07-.04.13-.07.2-.11v.36l.18-.03c.28-.03.61,0,.91.1-.16.22-.38.41-.62.5l-.25.1.2.17s.09.08.17.16c-.04,0-.07.01-.1.02-.05,0-.11,0-.19.02-.18.03-.43.06-.59.04-.15,0-.31-.03-.41-.05h-.04c-.05-.12-.11-.22-.22-.32M225.12,28.98s-.05.01-.07.03c-.04.02-.08.02-.13.01-.02,0-.05-.01-.06-.01-.08-.02-.15-.06-.22-.12h0c-.09-.08-.13-.16-.16-.24,0,0,0,0,0,0-.02-.08-.02-.14,0-.18,0-.02,0-.04.02-.05.05-.05.1-.06.14-.06.11,0,.24.05.34.14l.1.11c.1.14.13.28.05.37M224.35,28.12c-.14-.23-.39-.61-.69-.78-.29-.16-.71-.19-.96-.19.06-.3.28-.53.57-.59l.07.06.05-.08s.03,0,.04,0c.25,0,.49.11.63.29l.23.29.06-.36.02-.14c.12.07.26.18.34.41.13.34.06.8.01,1.01-.03,0-.07-.02-.1-.02-.1,0-.19.05-.27.1M222.44,26.43c-.1,0-.17-.09-.17-.17,0-.11.07-.18.17-.18.09,0,.17.07.17.18,0,.09-.08.17-.17.17M222.93,26.26l.06.06s-.05.03-.08.04c0-.03.01-.07.01-.1M223.59,25.13l.07-.12-.09-.1c-.45-.53-.69-1.17-.69-1.86,0-.4.09-.81.27-1.19.63-1.38,2.66-2.33,4.93-2.33.29,0,.6.02.92.05,0,.04-.02.08-.02.12,0,.01,0,.02,0,.04-.29-.03-.59-.05-.91-.05-2.23,0-4.2.93-4.78,2.25-.15.32-.23.69-.23,1.11,0,.73.28,1.41.8,1.92l-.62,1.07-.13-.11.47-.79ZM223.07,20.74c-.1,0-.17-.08-.17-.18,0-.09.08-.17.17-.17.11,0,.19.07.19.17,0,.1-.08.18-.19.18M223.87,20.08c-.09,0-.18-.07-.18-.17,0-.09.1-.17.18-.17.1,0,.18.08.18.17,0,.1-.09.17-.18.17M224.65,19.39c0-.1.09-.19.18-.19s.17.08.17.19c0,.09-.07.16-.17.16s-.18-.08-.18-.16M225.64,19c0-.09.09-.18.18-.18.1,0,.18.08.18.18s-.08.17-.18.17c-.08,0-.18-.07-.18-.17M226.75,18.79c0-.09.08-.17.17-.17s.19.07.19.17c0,.11-.1.18-.19.18-.09,0-.17-.06-.17-.18M227.97,18.55c.1,0,.19.09.19.17,0,.1-.09.19-.19.19s-.17-.08-.17-.19c0-.09.07-.17.17-.17M229,18.59c.1,0,.18.09.18.18s-.09.17-.18.17c-.08,0-.18-.07-.18-.17,0-.09.09-.18.18-.18M229.49,20.74c0,.09-.09.18-.18.18-.11,0-.18-.1-.18-.18,0-.1.07-.18.18-.18.09,0,.18.08.18.18M229.31,20.17h0c.06.02.13.04.21.04.09,0,.18-.03.26-.08-.03.1-.06.2-.08.3-.09-.11-.23-.19-.39-.19-.28,0-.49.22-.49.5s.22.5.49.5c.12,0,.24-.05.33-.13,0,.11,0,.24.02.35-.09-.11-.22-.18-.38-.18-.28,0-.5.21-.5.49s.23.49.5.49c.03,0,.05,0,.08,0-.11.06-.19.14-.24.25-.25,0-.5,0-.76-.02-.99-.01-2.24.29-3.36.83-.46.21-.9.46-1.33.74-.15-.31-.23-.64-.23-1s.07-.67.2-.94c.52-1.18,2.38-2.03,4.43-2.03.45,0,.85.03,1.22.09M229.45,19.58l.07-.05h0c.1,0,.17.08.17.17s-.08.18-.17.18c-.04,0-.07-.01-.1-.04v-.04s-.05-.06-.05-.1c0-.04.03-.08.08-.12M229.9,22.33c-.09-.08-.2-.13-.32-.13-.03,0-.05,0-.08,0,.12-.06.22-.17.26-.3.04.14.09.28.14.42M229.57,22.52c.09,0,.17.08.17.17s-.08.17-.17.17-.17-.08-.17-.17c0-.1.08-.17.17-.17M229.28,21.94c-.11,0-.18-.09-.18-.17,0-.1.07-.18.18-.18.09,0,.17.07.17.18,0,.09-.09.17-.17.17M228.25,28.76l-.06.06s-.05-.02-.05-.02c-.08-.02-.18-.11-.23-.26-.06-.19,0-.37.08-.4.08-.02.22.09.29.29.04.13.02.27-.03.33M230.33,23.56c0,.09-.09.17-.19.17-.09,0-.16-.08-.16-.17s.08-.17.16-.17c.1,0,.19.08.19.17M230.07,22.7s0-.03,0-.05c.1.17.21.34.34.5-.08-.05-.17-.08-.27-.08-.26,0-.48.22-.48.49s.21.49.48.49c.06,0,.12-.01.18-.04l.05.04c-.14.26-.23.55-.24.84-.03,0-.05,0-.08-.02-.25-.05-.43.02-.44.03l-.16.07.08.16s.16.29.22.39c.03.04.07.13.1.21.06.13.14.28.23.43-.23-.08-.63-.08-.76-.08-.12,0-.35,0-.35,0h-.22s.07.21.07.21c0,0,.02.08.09.2.02.05.04.06.06.09-.32.14-.62.38-.82.67l-.08.12.12.1c.29.21.65.33.99.34,0,.03,0,.05-.02.09h0c-.01.15-.01.22-.01.23v.23l.22-.08.33-.13s.07-.03.11-.05c.16-.06.41-.18.57-.28.13-.1.25-.21.34-.29,0,0,.01,0,.03.02.07.17.11.36.11.54,0,.7-.58,1.26-1.28,1.26-.41,0-.79-.2-1.02-.52.07-.15.1-.33.04-.51-.13-.37-.43-.56-.7-.48-.27.09-.4.44-.28.8.06.17.18.31.31.39-.01.25-.09.73-.53.8,0,0-.47,0-1.09-.5-.16-.14-.3-.26-.43-.37.19.02.45-.02.64-.05.07-.02.14-.02.18-.02h.02c.12-.03.37-.07.37-.07l.21-.03-.08-.19s-.05-.09-.16-.21c-.03-.03-.07-.06-.09-.09.28-.17.52-.42.67-.71l.09-.16-.17-.06c-.34-.13-.72-.19-1.07-.17v-.11c-.01-.15-.02-.21-.02-.21l-.04-.27-.22.17s-.19.14-.39.23c-.31.17-.54.31-.69.45,0-.18-.03-.37-.1-.54-.21-.57-.71-.67-.73-.68l-.17-.03-.03.17v.06c-.15-.1-.33-.16-.51-.18l.7-1.21.08-.13-.12-.1c-.13-.11-.24-.24-.34-.38.42-.28.86-.52,1.29-.73,1.07-.5,2.25-.79,3.15-.78.27.02.54.03.81.02.08.15.24.26.43.26.27,0,.49-.22.49-.49M230.03,20.94c0-.06,0-.11,0-.17.09-1.59,1.92-2.89,4.09-2.89.93,0,1.83.23,2.55.65,0,.05-.01.1-.02.15-.7-.41-1.61-.64-2.53-.64-2.12,0-3.83,1.19-3.91,2.7-.02.12-.02.23-.02.34,0,.84.42,1.65,1.11,2.15l-.44.74-.13-.1.26-.45.08-.13-.11-.1c-.6-.54-.94-1.31-.94-2.1,0-.05,0-.09,0-.14M230.81,18.3c-.09,0-.16-.08-.16-.18,0-.09.07-.17.16-.17.1,0,.18.07.18.17,0,.1-.08.18-.18.18M231.56,17.59c0-.1.08-.18.19-.18.08,0,.17.08.17.18s-.09.18-.17.18c-.11,0-.19-.07-.19-.18M232.73,17.09c.11,0,.17.07.17.17,0,.12-.06.18-.17.18-.09,0-.16-.08-.16-.18,0-.1.07-.17.16-.17M233.8,16.9c.09,0,.16.08.16.17,0,.1-.08.18-.16.18-.11,0-.18-.07-.18-.18,0-.1.07-.17.18-.17M234.82,16.93c.1,0,.18.09.18.16,0,.11-.08.18-.18.18s-.19-.07-.19-.18c0-.08.09-.16.19-.16M235.89,17.11c.09,0,.17.08.17.18s-.07.17-.17.17-.18-.07-.18-.17c0-.1.09-.18.18-.18M236.87,17.47c.1,0,.17.07.17.17,0,.01,0,.03,0,.04-.04.04-.07.09-.11.14-.02,0-.03,0-.05,0-.09,0-.17-.09-.17-.19s.08-.17.17-.17M237.91,16.17v-2.58h-.74v-.29h.74v-.73h.3v.73h.74v.29h-.74v2.58h.95c0,.1-.02.19-.04.28h-2.15c-.03-.09-.05-.19-.05-.28h.99ZM237.46,15.18v.54h-.46c.09-.22.25-.41.46-.54M239.08,15.72h-.42v-.52c.19.13.33.31.42.52M239.37,17.64c0,.09-.1.19-.19.19,0,0-.02,0-.03,0-.04-.06-.08-.11-.13-.16,0,0,0,0,0-.02,0-.09.08-.17.17-.17.1,0,.19.08.19.17M241.92,17.89c2.18,0,4.02,1.3,4.09,2.9v.02s0,.02,0,.02c.02.07.02.16.02.26,0,.8-.34,1.56-.94,2.1l-.11.1.08.13.26.45-.13.1-.43-.74c.67-.5,1.09-1.32,1.09-2.15,0-.11,0-.22-.01-.33-.07-1.51-1.79-2.71-3.92-2.71-.93,0-1.83.23-2.52.64,0-.05-.01-.1-.02-.15.71-.42,1.6-.64,2.54-.64M240,17.29c0-.1.08-.18.18-.18.1,0,.18.08.18.18s-.07.17-.18.17c-.08,0-.18-.06-.18-.17M241.08,17.09c0-.08.07-.16.16-.16s.18.09.18.16c0,.12-.09.18-.18.18-.1,0-.16-.07-.16-.18M242.28,16.9c.09,0,.16.08.16.17,0,.1-.07.18-.16.18-.11,0-.2-.08-.2-.18,0-.09.09-.17.2-.17M243.32,17.09c.1,0,.18.07.18.17,0,.12-.07.18-.18.18-.08,0-.18-.07-.18-.18,0-.09.1-.17.18-.17M244.33,17.41c.09,0,.18.07.18.18,0,.1-.09.18-.18.18-.13,0-.17-.1-.17-.18s.04-.18.17-.18M245.24,17.95c.1,0,.17.07.17.17,0,.1-.07.18-.17.18-.12,0-.16-.09-.16-.18,0-.08.04-.17.16-.17M245.74,23.56c0-.09.08-.17.17-.17.11,0,.18.09.18.17,0,.1-.08.17-.18.17-.08,0-.17-.08-.17-.17M244.68,26.48l.1-.08c.08-.04.16-.07.26-.07.21,0,.38.13.46.31h0c.03.07.04.14.04.2,0,.12-.06.24-.15.33h0c-.09.1-.22.14-.35.14-.09,0-.17-.03-.25-.08-.04-.03-.1-.07-.11-.09-.04-.04-.07-.08-.1-.13h0c-.03-.07-.04-.12-.04-.19,0-.14.06-.28.15-.36M246.92,26.81c.27.07.53.25.73.48-.27.16-.56.23-.85.19l-.26-.03.09.26s.02.07.05.17c-.02-.02-.05-.03-.07-.03,0,0-.03,0-.03,0-.1-.05-.45-.17-.61-.29-.12-.08-.21-.16-.28-.24.11-.13.19-.29.19-.48,0-.09-.03-.17-.05-.25.09-.05.2-.08.33-.12.14-.04.38-.07.69-.07h.09c-.06.09-.1.14-.1.14l-.15.19.24.07ZM244.56,24.91c.12.09.16.14.16.14l.2.3s.09-.35.09-.35c.07-.28.26-.56.51-.78.14.27.22.59.19.91l-.04.48.32-.36s.04-.03.17-.06c.02,0,.04,0,.06,0-.04.06-.07.11-.09.14-.05.05-.08.13-.13.24-.07.13-.13.29-.23.45-.06.09-.11.16-.16.23-.15-.15-.35-.24-.58-.24-.12,0-.23.03-.33.07-.02-.07-.05-.16-.07-.26-.05-.18-.07-.36-.09-.5,0-.12-.01-.21-.03-.27,0-.03-.02-.1-.03-.16.01,0,.03,0,.06.02M237.56,26.2c0-.27.23-.49.51-.49s.49.23.49.49c0,.13-.04.24-.13.33h0s-.03.04-.04.05c-.09.07-.19.12-.31.12-.14,0-.25-.06-.34-.13l-.03-.03c-.09-.09-.14-.21-.14-.34M236.59,19.79v-.02.28s0,.07,0,.1c0,.28-.03.55-.04.81-1.44.11-2.69.38-3.62.78-.54.25-1.22.45-1.97.58-.24-.36-.38-.79-.38-1.23,0-.1,0-.19.02-.27v-.02s0-.02,0-.02c.06-1.3,1.64-2.36,3.53-2.36.93,0,1.83.25,2.5.68-.02.24-.03.47-.03.68M237.81,21.3c-.22.08-.39.24-.46.45.04-.26.08-.54.1-.85.05.18.18.33.35.4M238.27,21.3c.16-.07.29-.21.33-.39.02.26.05.53.09.77-.08-.18-.23-.32-.42-.38M238.47,22.55c.16-.12.27-.3.28-.51.05.24.1.47.16.67l-.19.19c-.05-.14-.13-.27-.25-.35M237.94,22.68s.07,0,.1,0c.04,0,.07,0,.1,0,.2.05.35.23.35.44,0,0,0,0,0,0l-.03.03c-.08-.12-.17-.24-.28-.35l-.11-.11-.11.11c-.12.11-.23.25-.31.39l-.05-.05s0-.02,0-.03c0-.21.15-.39.35-.44M237.7,20.74c0-.18.16-.33.34-.33s.32.15.32.33-.14.34-.32.34-.34-.15-.34-.34M238.49,21.97c0,.22-.14.4-.35.44-.03,0-.07,0-.1,0-.03,0-.07,0-.1,0-.2-.05-.35-.22-.35-.44,0-.24.2-.45.46-.45s.45.2.45.45M238.56,20.08s0,.05,0,.07c0,.12,0,.23,0,.35-.09-.21-.29-.36-.53-.36s-.47.15-.56.36c0-.11.01-.23.01-.35,0-.02,0-.04,0-.07,0-.04.01-.08.01-.13v-.15c0-.51.04-.98.1-1.4.04-.16.22-.29.42-.29.18,0,.34.12.41.3.05.36.1.85.1,1.38v.15s0,.09,0,.12M237.61,22.55c-.12.09-.21.22-.26.37l-.21-.21c.07-.21.13-.47.19-.75,0,0,0,0,0,0,0,.24.11.45.29.58M236,26.61c-.34-.04-.68-.18-.95-.41.26-.24.61-.4.95-.43l.25-.02-.13-.22s-.05-.09-.1-.22l.14.03s.08.02.08.02c.17.04.48.11.67.19.16.08.32.18.42.26-.06.12-.1.25-.1.39s.04.27.11.39c-.1.08-.26.17-.44.26-.14.07-.41.14-.75.2-.03.01-.08.02-.13.03.05-.13.09-.21.09-.21l.13-.22-.25-.03ZM238.93,24.58c-.04.15-.1.38-.17.57-.08.16-.16.31-.22.39-.13-.1-.29-.17-.48-.17s-.34.07-.48.17c-.06-.1-.13-.23-.21-.4-.1-.21-.15-.45-.19-.62-.03-.08-.04-.14-.06-.18-.02-.06-.06-.15-.1-.23.03,0,.06.01.1.03.16.07.21.12.21.12l.25.26s.03-.35.03-.35c.03-.36.2-.72.44-.99.25.29.41.65.44.99l.04.45.25-.36s.05-.05.21-.12c.03,0,.06,0,.09-.02-.03.08-.06.17-.09.21-.02.06-.05.15-.07.26M240.14,25.78c.32.03.66.19.91.43-.26.23-.59.37-.91.41l-.23.03.1.2s.05.09.08.23c-.04-.01-.08-.02-.11-.02,0,0-.03-.01-.03-.01-.13-.02-.54-.1-.74-.19-.17-.09-.33-.19-.44-.27.07-.11.11-.24.11-.38s-.04-.26-.1-.38c.11-.07.27-.18.44-.27.16-.08.47-.14.65-.18.05,0,.08-.02.1-.03,0,0,.06,0,.12-.02-.04.14-.09.23-.09.24l-.1.2.23.02ZM239.44,19.11c.66-.44,1.55-.69,2.49-.69,1.9,0,3.48,1.06,3.54,2.36,0,.1,0,.2,0,.3,0,.44-.14.87-.38,1.25-.79-.13-1.52-.35-2.07-.6-.89-.38-2.09-.65-3.51-.77-.02-.27-.03-.54-.04-.83,0-.04,0-.07,0-.1,0-.03,0-.06,0-.09v-.16c0-.23-.01-.46-.02-.67M239.3,18.13s.01,0,.02,0c0,0,0,0-.01,0h0ZM237.22,16.9h1.64c-.16.18-.37.29-.61.34-.07-.01-.14-.02-.21-.02s-.14,0-.21.02c-.24-.05-.45-.17-.61-.34M236.73,18.12s.02,0,.02.01c0,0-.02,0-.02-.01M236.97,20.15s0-.06,0-.09c0-.04,0-.07,0-.11v-.06s0-.06,0-.08h0v-.02c0-.14,0-.28.02-.43h.02s.03-.33.03-.33c0-.13.02-.26.03-.38l.02-.21v-.12s0,0,0,0h0c.07-.29.31-.54.6-.66.11.03.23.04.35.04s.23-.02.34-.04c.29.11.51.36.58.67,0,.02,0,.03,0,.05v.06c.01.1.03.21.04.3,0,.1.02.19.03.29l.03.34h0c0,.13,0,.27,0,.41v.16s0,.09,0,.13c0,.02,0,.05,0,.06.02,1.05.16,2.05.36,2.7l-.77.79s-.04-.09-.05-.13c0-.01.01-.03.02-.04l.57-.58.08-.08-.04-.09c-.21-.66-.34-1.61-.36-2.55,0-.04,0-.07,0-.1s0-.06,0-.09v-.15c0-.57-.07-1.1-.11-1.45v-.02s0-.02,0-.02c-.11-.33-.41-.56-.75-.56-.36,0-.69.25-.77.58-.08.43-.11.92-.11,1.45v.15s0,.05,0,.08c0,.03,0,.07,0,.11-.03,1.04-.17,1.97-.37,2.54l-.04.1.08.08.64.64s0,.02.01.02c-.01.04-.03.09-.05.12l-.83-.83c.2-.61.33-1.55.37-2.69M229.36,27.48c-.28.03-.58-.04-.84-.19.2-.23.46-.41.73-.48l.26-.07-.18-.2s-.05-.05-.1-.14h.09c.32,0,.54.03.67.07.12.03.24.08.34.12-.02.08-.05.16-.05.25,0,.18.08.34.18.48-.07.08-.16.17-.27.24-.12.09-.38.19-.52.25-.05.02-.09.04-.11.04,0,0-.03.02-.08.03.02-.11.04-.2.04-.2l.06-.23-.22.03ZM231.62,26.84c0,.27-.24.48-.51.48-.13,0-.24-.05-.34-.12l-.04-.03c-.09-.09-.14-.2-.14-.32,0-.08.02-.14.04-.2h.01s.01-.03.02-.05c.09-.15.25-.26.44-.26.29,0,.51.22.51.51M231.62,25.05c-.02.07-.04.17-.05.31,0,.14-.03.3-.06.45-.02.1-.06.19-.08.26-.1-.04-.21-.07-.32-.07-.23,0-.44.09-.58.24-.07-.07-.12-.14-.18-.23-.1-.15-.16-.3-.23-.43-.05-.12-.09-.2-.13-.25-.02-.03-.04-.09-.08-.15.02,0,.03,0,.05,0,.15.03.19.06.19.06l.33.37s-.06-.5-.06-.5c-.03-.29.05-.61.18-.87l.18.15.06.05c.13.17.23.35.28.54l.11.42.19-.38s.03-.05.17-.13c.02,0,.03,0,.04,0,0,.07-.02.13-.03.16h0ZM232.84,26.17c.28-.02.59.06.84.21-.2.23-.46.41-.72.47l-.22.06.12.19s.04.07.1.16h-.1c-.39,0-.58-.02-.67-.06-.12-.03-.23-.08-.31-.11.03-.08.05-.16.05-.25,0-.2-.07-.37-.18-.51.07-.07.15-.14.26-.22.15-.11.47-.23.59-.28h.02s.05-.02.07-.04c-.01.09-.04.17-.04.17l-.07.24.24-.03ZM234.73,27.54l-.06.05c-.09-.04-.21-.18-.23-.35-.02-.13,0-.26.07-.32.02-.04.05-.06.08-.06.08,0,.2.12.23.33.01.17-.04.3-.09.35M235.13,27.15c-.03-.37-.29-.64-.57-.62-.12.02-.23.08-.3.18-.11.14-.16.35-.13.56.02.19.11.37.25.48-.12.61-.65,1.05-1.31,1.05-.73,0-1.33-.59-1.33-1.33,0-.04,0-.07,0-.11.1.04.24.1.39.14.16.04.42.06.75.06.11,0,.35.02.35.02l.26.02-.1-.24s-.02-.08-.1-.2c-.02-.04-.03-.05-.04-.08.32-.13.61-.36.81-.66l.09-.12-.12-.1c-.28-.22-.65-.34-1-.35,0-.03.02-.06.02-.1.03-.13.03-.2.03-.21v-.23l-.22.08s-.23.08-.34.13c.01,0,0,0,0,0-.22.08-.48.19-.66.31.03-.16.04-.32.06-.45,0-.1.02-.22.03-.25h0s0-.01,0-.01c.02-.11.07-.43.07-.44l.02-.19h-.18s-.21.02-.41.13c-.03.02-.05.03-.08.05-.06-.14-.14-.28-.24-.4l.6-1.02.09-.16-.16-.1c-.15-.09-.28-.2-.4-.32.7-.14,1.32-.33,1.83-.58.87-.37,2.04-.62,3.4-.74-.07.6-.17,1.1-.29,1.44l-.04.11.09.09.75.75c-.11-.01-.2,0-.21,0l-.19.03.07.19s.12.34.18.47c0,.02.02.08.04.15.04.17.11.43.21.66,0,0,0,.02,0,.02,0,0-.02-.02-.04-.02-.23-.1-.56-.17-.75-.22l-.08-.02s-.41-.07-.41-.07l-.23-.04.04.23s.02.08.08.24c.02.05.03.08.05.11-.39.09-.78.3-1.06.59l-.11.11.11.11c.28.29.66.5,1.06.58-.02.04-.03.07-.05.13-.06.13-.08.22-.08.23l-.04.23.23-.05s.27-.05.41-.08c.25-.05.6-.11.82-.21.21-.11.4-.23.5-.3h0c.04.11.05.23.05.36,0,.74-.6,1.34-1.35,1.34-.56,0-1.05-.35-1.24-.88.09-.14.14-.32.11-.51M241.71,27.24c-.03.17-.11.27-.18.3l-.06.02-.04-.03c-.06-.06-.12-.18-.09-.34.03-.2.13-.35.25-.34.05,0,.14.17.12.38M244.15,24.7s.04.33.07.44c.02.04.02.12.04.21,0,.15.02.33.07.51-.21-.15-.58-.29-.69-.33-.11-.05-.32-.12-.32-.12l-.22-.08v.23s0,.07.02.21c0,.04,0,.07.02.1-.36.01-.72.13-1,.35l-.12.1.09.12c.21.31.5.53.82.66-.02.03-.03.05-.05.08-.08.13-.1.21-.11.22l-.08.23.25-.02s.23-.02.34-.02c.13,0,.52,0,.75-.06.15-.04.28-.1.39-.14v.11c0,.73-.6,1.33-1.34,1.33-.65,0-1.18-.44-1.29-1.05.12-.1.21-.27.25-.48.03-.39-.15-.71-.41-.75-.3,0-.55.24-.61.62-.03.19.03.37.13.51-.2.53-.69.88-1.25.88-.74,0-1.34-.61-1.34-1.34,0-.13,0-.26.03-.37.11.08.29.2.5.3.22.1.57.17.82.22h.02c.13.04.37.08.39.09l.22.05-.04-.23s-.02-.09-.07-.24c-.02-.06-.03-.08-.04-.12.39-.08.76-.29,1.04-.58l.1-.11-.1-.11c-.28-.29-.66-.5-1.04-.59.01-.03.02-.07.04-.11.05-.16.07-.23.07-.23l.05-.23-.23.04-.39.07s-.07.02-.11.03c-.19.04-.52.11-.72.21t-.02,0c.08-.21.14-.44.18-.61.02-.09.04-.17.06-.21.04-.12.16-.45.16-.46l.06-.18-.18-.03s-.13-.02-.29,0l.75-.77.08-.08-.04-.11c-.13-.36-.23-.86-.3-1.43,1.34.13,2.47.38,3.28.72.52.25,1.2.45,1.94.6-.11.11-.23.21-.37.3l-.15.1.09.15.62,1.08c-.07.11-.14.22-.19.33-.02-.02-.04-.02-.06-.05-.21-.12-.4-.13-.42-.13h-.19l.04.19ZM244.27,27.08c-.1.04-.21.09-.33.12-.13.04-.36.06-.67.06h-.09c.06-.09.1-.15.1-.15l.13-.2-.23-.06c-.27-.07-.52-.24-.72-.48.26-.14.56-.22.85-.2l.24.03-.07-.23s-.02-.08-.04-.17c.02,0,.05.02.07.02.31.12.51.21.63.29.1.08.19.15.26.22-.1.15-.18.31-.18.51,0,.08.03.16.06.24M248.03,28.8l-.06.02-.06-.06c-.05-.06-.08-.18-.02-.33.04-.15.12-.24.19-.28.02,0,.06-.02.1,0,.09.02.14.2.09.4-.05.13-.14.23-.23.26M246.49,23.19c.18,0,.34-.1.42-.25.24,0,.46,0,.7-.03.89-.02,2.07.28,3.14.78.46.22.91.48,1.37.79-.09.11-.18.22-.29.31l-.11.1.08.13.7,1.23c-.15.03-.29.09-.41.18v-.07s-.05-.16-.05-.16l-.16.03s-.5.12-.73.68c-.06.17-.08.36-.08.53-.18-.15-.43-.3-.66-.43l-.02-.02c-.2-.09-.4-.23-.4-.24l-.19-.14-.06.23s-.03.09-.03.23v.11c-.35-.01-.73.04-1.08.17l-.16.06.08.16c.15.3.38.55.67.71-.03.03-.06.06-.1.09-.1.12-.13.17-.14.18l-.12.21.24.03s.25.04.38.07h.01s.01,0,.01,0c.02,0,.09,0,.15.02.19.02.44.06.64.04-.12.11-.26.24-.43.38-.64.5-1.1.5-1.11.5-.44-.07-.5-.57-.51-.8.13-.08.25-.21.32-.39.11-.37-.02-.71-.28-.8-.11-.03-.23-.02-.34.04-.16.08-.28.26-.35.46-.06.17-.04.35.03.5-.23.32-.61.52-1.02.52-.7,0-1.28-.57-1.28-1.26,0-.19.04-.38.11-.54.01,0,.02,0,.03-.02.08.08.2.19.34.29.16.12.45.23.67.32h.02c.1.05.31.13.32.14l.22.08v-.23s0-.08,0-.21c0-.05-.02-.07-.02-.11.35,0,.7-.13.99-.34l.12-.1-.09-.12c-.2-.31-.49-.54-.81-.68.02-.03.03-.04.06-.07.07-.14.09-.22.09-.24l.02-.18h-.19s-.22,0-.33,0c-.13,0-.52,0-.78.09.1-.16.18-.33.24-.46.03-.07.07-.15.09-.17.08-.1.22-.35.24-.4l.07-.16-.14-.07s-.19-.08-.45-.03c-.03,0-.06.02-.08.02-.02-.31-.1-.61-.26-.86.04,0,.08.02.12.02.28,0,.5-.22.5-.49s-.23-.49-.5-.49c-.08,0-.16.02-.23.06.12-.14.22-.29.31-.46,0,0,0,.01,0,.03,0,.27.23.49.5.49M246.31,21.89c.04.14.14.26.28.32-.03,0-.06,0-.09,0-.12,0-.24.05-.33.12.06-.14.11-.28.14-.43M246.58,20.74c0-.1.08-.18.17-.18.1,0,.18.08.18.18s-.09.18-.18.18-.17-.09-.17-.18M246.66,22.7c0,.09-.07.17-.17.17-.1,0-.18-.08-.18-.17s.09-.17.18-.17c.09,0,.17.08.17.17M246.6,21.77c0-.11.1-.18.19-.18.1,0,.17.07.17.18,0,.1-.08.17-.17.17-.1,0-.19-.08-.19-.17M246.54,20.2c.08,0,.15-.02.21-.05v.02c.37-.06.78-.09,1.21-.09,2.09,0,3.91.83,4.44,2.02.13.28.2.59.2.95,0,.38-.09.74-.26,1.06-.47-.32-.94-.59-1.42-.81-1.13-.53-2.37-.83-3.34-.82-.24.01-.44.03-.66.03-.05-.11-.12-.21-.24-.26.03,0,.06,0,.1,0,.27,0,.49-.22.49-.49s-.21-.49-.49-.49c-.17,0-.32.08-.41.19.02-.12.03-.25.03-.38.09.09.21.14.33.14.27,0,.49-.23.49-.5s-.22-.5-.49-.5c-.16,0-.3.08-.39.2-.02-.11-.04-.21-.07-.32.07.05.16.08.26.08M246.54,19.53c.1,0,.17.08.17.17s-.08.18-.17.18-.18-.08-.18-.18c0-.09.08-.17.18-.17M247.06,18.59c.1,0,.17.08.17.18s-.08.17-.17.17-.17-.07-.17-.17.08-.18.17-.18M247.96,19.53c2.28,0,4.31.96,4.94,2.33.18.37.27.78.27,1.19,0,.68-.24,1.32-.68,1.87l-.09.1.07.11.47.79-.14.12-.62-1.07c.51-.51.8-1.19.8-1.92,0-.41-.08-.79-.24-1.11-.59-1.32-2.55-2.25-4.78-2.25-.32,0-.64.02-.94.05,0-.02,0-.03,0-.04,0-.04,0-.08-.02-.12.34-.04.65-.06.95-.06M248.09,18.55c.09,0,.18.09.18.17,0,.1-.08.19-.18.19s-.17-.08-.17-.19c0-.09.07-.17.17-.17M249.14,18.62c.1,0,.17.07.17.17,0,.1-.07.18-.17.18s-.18-.07-.18-.18c0-.1.08-.17.18-.17M250.25,18.82c.08,0,.17.08.17.18s-.09.17-.17.17c-.1,0-.19-.07-.19-.17s.09-.18.19-.18M251.23,19.2c.1,0,.18.08.18.19,0,.09-.08.16-.18.16s-.17-.07-.17-.16c0-.1.08-.19.17-.19M252.18,19.74c.1,0,.17.08.17.17,0,.1-.07.17-.17.17-.1,0-.18-.08-.18-.17,0-.09.09-.17.18-.17M252.98,20.39c.1,0,.18.08.18.17,0,.1-.09.18-.18.18-.1,0-.17-.07-.17-.18,0-.09.07-.17.17-.17M253.14,26.25s0,0,0,0c0,.02,0,.03,0,.05-.02,0-.04-.01-.06-.02l.05-.04ZM253.45,27.15c-.25,0-.66.03-.95.19-.3.17-.55.54-.69.78-.11-.07-.24-.1-.38-.08-.04-.22-.11-.68.02-1.01.08-.23.23-.34.33-.41l.03.15.08.33.21-.28c.13-.16.33-.27.56-.29l.04.08.09-.08c.33.03.58.28.66.61M253.64,26.08c.1,0,.17.08.17.18,0,.09-.08.17-.17.17-.1,0-.18-.09-.18-.17,0-.11.07-.18.18-.18M254.09,25.22c.1,0,.17.07.17.17s-.07.17-.17.17-.17-.07-.17-.17.07-.17.17-.17M251.69,28.64s0,0,0,0c-.02.08-.08.16-.15.23-.08.07-.15.1-.23.12-.02,0-.04.01-.07.01-.05,0-.1,0-.14-.01-.02-.01-.04-.01-.06-.03-.1-.11-.03-.32.14-.48.17-.16.4-.21.5-.09,0,0,0,.02.02.03.01.05.01.13,0,.2M249.55,28.12c-.24-.1-.47-.28-.62-.5.3-.09.63-.13.9-.1l.22.03-.04-.22s0-.06,0-.15c.07.04.14.08.21.11,0,0,.01,0,.01,0,.18.11.56.31.69.48.09.12.14.27.19.36-.06.03-.12.07-.17.11-.1.1-.16.2-.21.31h-.05c-.14.04-.27.05-.38.06-.18.02-.45-.01-.62-.04-.07,0-.12-.02-.16-.02-.04,0-.07-.02-.11-.02.09-.09.18-.16.18-.16l.22-.17-.27-.1ZM247.71,32.31l-.47-.38.61-.07.22.29-.36.16ZM219.6,46.2c.29.17.67.38.63.83-.06.44-.5.71-1.12.65-.17-.02-.43-.08-.6-.2l-.06-.05.15-.43.03-.07h.21s0,.08,0,.08c.02.17.17.29.39.31.16.02.33-.03.34-.19.02-.13-.13-.23-.36-.35-.29-.15-.65-.34-.61-.8.05-.36.36-.68,1.02-.64.25.04.5.15.59.24l.05.04-.13.3-.06.11-.18-.02-.02-.06c-.05-.13-.15-.22-.3-.24-.3-.03-.33.12-.33.18,0,.1.12.19.36.3M218.08,45.59c-.26.63-.54,1.28-.77,1.93l-.02.08h-.15s-.06-.02-.07,0l-.23.04-.02-.07c-.32-.62-.67-1.26-1.1-2l-.09-.13h.29l.19-.02.28-.03h.09s.52,1.03.52,1.03c0,0,.09.16.15.28.17-.41.35-.86.49-1.34l.03-.05.23-.02h.1s.06-.02.06-.02l.15-.02-.15.35ZM214.36,48l-.43-2.11-.04-.09.16-.03.21-.03.15-.05.1-.02.09-.03s.36,1.64.39,1.81c.14-.03.7-.18.7-.18l.13-.03v.11s0,.12,0,.12l.02.04.06.16-1.55.32ZM213.5,46.97c-.12.29-.47.46-.78.59.04.14.29.77.29.77l.04.1-.35.09-.34.16-.81-2.11.91-.37c.31-.11.57-.14.75-.05.12.05.22.16.26.3.05.1.06.19.06.29,0,.08,0,.15-.05.22M221.96,25.57c-.1,0-.16-.07-.16-.17s.07-.17.16-.17c.12,0,.17.09.17.17,0,.1-.07.17-.17.17M230.03,18.94c-.1,0-.17-.07-.17-.17s.08-.18.17-.18c.12,0,.18.09.18.18,0,.1-.07.17-.18.17M246.02,18.59c.1,0,.18.09.18.18s-.1.17-.18.17c-.1,0-.16-.07-.16-.17s.07-.18.16-.18M261.3,45.15c-1.04-.18-2.05-.26-2.91-.24-1.84,0-3.45.21-4.57.55v-10.85h-8.54c.84-.17,1.63-.36,2.34-.59.23-.07.38-.3.35-.54,0-.18-.08-.35-.22-.44v-.03c-.06-.03-.05-.15,0-.4h.02s.56-.27.56-.27l.17-.08-.11-.14-.28-.38c.14-.18.27-.24.35-.25,0,0,0,0,0,0,.26.09.55-.07.62-.29.09-.22-.02-.39-.02-.39h0c.39-.09.75-.28.92-.38.44-.28.84-.78,1.07-1.11.02,0,.04.02.07.02.02,0,.04,0,.06,0,.07,0,.15,0,.22-.03.02-.01.04-.02.06-.02.1-.04.19-.09.27-.17h.02c.07-.07.12-.14.16-.21.02-.02.02-.05.04-.07.03-.06.05-.11.07-.16,0-.03,0-.06,0-.09,0-.04,0-.09,0-.14v-.06c.1-.21.37-.63.63-.77.35-.19.97-.14.98-.14h.18s0-.16,0-.16c0-.21-.06-.41-.16-.57.26,0,.47-.22.47-.48,0-.17-.08-.31-.19-.4.05.02.1.03.16.03.28,0,.49-.21.49-.49s-.21-.49-.49-.49-.49.22-.49.49c0,.17.07.3.19.39-.05-.01-.1-.03-.15-.03-.11,0-.2.04-.29.1l-.48-.81c.45-.59.69-1.28.69-2,0-.47-.1-.94-.3-1.36-.11-.24-.26-.46-.43-.67.05.02.1.03.16.03.27,0,.5-.23.5-.5s-.22-.48-.5-.48-.49.21-.49.48c0,.05,0,.1.02.13-.11-.1-.22-.2-.34-.29,0,0,0,0,.02,0,.28,0,.49-.22.49-.49s-.22-.49-.49-.49-.5.22-.5.49c0,.07.01.13.04.19-.14-.08-.28-.16-.43-.23.25-.03.43-.23.43-.48,0-.28-.23-.51-.5-.51s-.49.23-.49.51c0,.1.03.19.09.27-.16-.06-.33-.12-.49-.18.23-.04.41-.24.41-.48,0-.27-.23-.5-.49-.5-.28,0-.5.23-.5.5,0,.15.07.28.18.38-.2-.05-.4-.09-.61-.13.19-.07.32-.24.32-.46,0-.27-.23-.49-.49-.49s-.5.22-.5.49c0,.17.08.31.2.4-.16-.02-.33-.03-.49-.04.13-.09.23-.25.23-.43,0-.26-.23-.49-.5-.49s-.49.22-.49.49c0,.18.09.33.22.42-.15,0-.31,0-.47.02.12-.09.21-.23.21-.4,0-.28-.22-.5-.49-.5s-.49.22-.49.5c0,.2.12.38.29.45-.05,0-.1.01-.16.03-.05-.02-.1-.04-.16-.04-.23,0-.43.16-.48.37-.07-.12-.15-.25-.24-.37.06.03.13.05.2.05.28,0,.5-.22.5-.49s-.23-.5-.5-.5-.48.22-.48.5c0,.05,0,.09.02.13-.1-.1-.19-.19-.3-.28.27,0,.48-.22.48-.5s-.22-.48-.49-.48-.48.21-.48.48c0,.06,0,.11.03.16-.11-.07-.23-.14-.35-.2.23-.05.4-.25.4-.49,0-.27-.22-.49-.5-.49s-.49.21-.49.49c0,.1.03.19.07.26-.13-.05-.26-.09-.4-.13.17-.07.29-.24.29-.46,0-.27-.21-.48-.49-.48-.24,0-.5.2-.5.48,0,.13.05.25.13.33-.15-.02-.31-.05-.47-.06.16-.08.28-.25.28-.46,0-.27-.22-.49-.47-.49-.29,0-.51.22-.51.49,0,.18.1.35.26.43h-.1c-.14,0-.28,0-.43,0,.14-.09.24-.24.24-.43,0-.26-.23-.48-.49-.48s-.47.22-.47.48c0,.23.13.4.32.47-.21.03-.41.07-.61.11.11-.09.19-.23.19-.39,0-.28-.22-.49-.49-.49s-.49.22-.49.49.2.47.46.48c-.23.08-.45.16-.66.27.13-.09.22-.24.22-.4,0-.25-.21-.46-.46-.48.07-.08.12-.16.17-.25h0l.07-.13h0s.14-.32.14-.32h-.03c.02-.1.03-.21.03-.31,0-.09,0-.18-.02-.28v-.14h-.04c-.13-.46-.46-.84-.89-1.02v-.65h.73v-1.19h-.73v-.73h-1.2v.73h-.74v1.19h.74v.63c-.59.24-.99.82-.99,1.46,0,.39.14.74.37,1.02-.26.02-.46.23-.46.49,0,.17.09.32.21.41-.22-.1-.45-.2-.68-.28.26,0,.47-.22.47-.49s-.22-.49-.48-.49-.51.23-.51.49c0,.17.09.31.22.4-.2-.05-.41-.1-.63-.12.2-.06.34-.24.34-.47,0-.26-.23-.48-.49-.48s-.51.22-.51.48c0,.19.1.34.25.43-.14,0-.29-.02-.43-.02h-.09c.14-.09.24-.25.24-.43,0-.27-.22-.49-.48-.49-.29,0-.5.21-.5.49,0,.21.11.38.29.46-.17.01-.33.04-.48.06.07-.09.12-.2.12-.33,0-.27-.21-.48-.49-.48s-.48.21-.48.48c0,.21.12.39.29.47-.14.04-.27.08-.39.13.05-.08.08-.17.08-.27,0-.27-.22-.49-.48-.49-.29,0-.5.21-.5.49,0,.25.17.44.4.49-.12.06-.24.13-.35.2.02-.05.03-.1.03-.16,0-.27-.22-.48-.5-.48-.27,0-.48.22-.48.48,0,.28.21.5.48.5h0c-.1.09-.21.19-.31.29.01-.05.02-.09.02-.13,0-.28-.22-.5-.49-.5s-.49.22-.49.5.22.49.49.49c.08,0,.15-.01.21-.05-.09.12-.17.26-.25.38-.04-.22-.24-.38-.48-.38-.06,0-.11.01-.16.04-.06-.01-.11-.02-.16-.03.18-.08.3-.25.3-.45,0-.27-.23-.5-.5-.5s-.5.23-.5.5c0,.16.09.31.21.4-.16-.01-.31-.02-.47-.02.14-.09.23-.25.23-.42,0-.26-.24-.49-.51-.49s-.5.23-.5.49c0,.18.1.34.24.43-.17,0-.33.02-.49.04.13-.09.21-.24.21-.4,0-.27-.23-.49-.51-.49s-.49.22-.49.49c0,.22.13.4.32.46-.21.03-.42.08-.62.13.11-.09.18-.23.18-.38,0-.28-.22-.5-.5-.5s-.49.23-.49.5c0,.25.19.45.43.49-.18.05-.36.12-.53.19.06-.09.1-.18.1-.29,0-.28-.22-.51-.49-.51s-.49.23-.49.51c0,.25.2.46.45.48-.16.08-.31.16-.46.25.03-.07.05-.13.05-.21,0-.27-.23-.49-.5-.49s-.5.23-.5.49.23.49.5.49c.02,0,.03,0,.04,0-.12.09-.24.19-.35.29,0-.05.02-.09.02-.13,0-.27-.22-.48-.5-.48s-.49.22-.49.48.22.5.49.5c.06,0,.11-.01.16-.03-.17.21-.32.43-.43.67-.2.43-.3.89-.3,1.35,0,.74.24,1.42.7,2l-.49.81c-.08-.06-.17-.1-.28-.1-.06,0-.12.02-.18.04.12-.09.19-.23.19-.4,0-.29-.21-.49-.49-.49s-.48.21-.48.49.21.49.48.49c.07,0,.13,0,.19-.03-.13.09-.21.24-.21.41,0,.27.23.49.49.49.03,0,.05,0,.08-.01-.1.17-.16.37-.16.58v.18h.17s.63-.07.98.12c.27.15.53.58.63.78,0,.01,0,.02,0,.03,0,.06,0,.11,0,.18,0,.01,0,.04.02.05,0,.07.03.12.06.18.02.02.03.05.03.07.05.07.11.14.18.21h0c.08.07.17.12.26.16.03.01.06.02.09.03.06.01.13.03.19.03.03,0,.05.02.07,0,0,0,.02,0,.03,0,0,0,.01,0,.02-.01h.03c.19.27.6.81,1.06,1.11.35.2.66.32.93.37-.02.06-.09.24-.04.39.05.17.2.26.25.28.07.03.33.02.37.01.07.01.21.06.35.25l-.27.39-.1.14.16.08.58.27h0c.07.25.07.37,0,.4v.02c-.13.09-.23.26-.23.45,0,.25.14.46.35.53.71.23,1.5.42,2.34.59h-8.38v10.88c-1.11-.35-2.76-.57-4.62-.57-.88-.02-1.88.05-2.92.24-3.29.59-5.8,1.97-5.6,3.1.01.11,1.13,2.75,1.13,2.75,0,0-.02-.06-.02-.09-.19-1.02,2.07-2.27,5.05-2.79.84-.14,1.63-.22,2.37-.24,1.85.08,3.5.36,4.61.74v15.02s0,.04,0,.05c0,.14,0,.28.01.41,0,.09.01.18.02.27,0,.05,0,.1.01.14.28,2.66,1.83,4.99,4.2,6.24,3.49,1.8,7.56,2.79,11.44,2.79s7.84-.97,11.36-2.79c1.53-.8,2.72-2.07,3.45-3.59.53-1.07.83-2.27.83-3.54v-15.03c1.11-.37,2.72-.64,4.54-.72.73.02,1.56.09,2.4.24,2.96.53,5.21,1.77,5.03,2.79,0,.02-.01.08-.01.09,0,0,1.12-2.64,1.12-2.75.2-1.13-2.3-2.51-5.59-3.1M257.82,31.96c.08,0,.15-.06.15-.15,0-.1-.07-.15-.15-.15-.09,0-.16.06-.16.15,0,.09.08.15.16.15M258.21,31.75c.09,0,.17-.07.17-.15s-.07-.16-.17-.16c-.07,0-.15.08-.15.16s.08.15.15.15M262.29,46.02l-.19.8c.37.09.59,0,.66-.31,0-.04.01-.07.01-.14,0-.27-.27-.29-.48-.35M260.49,34.14c0,.07.04.1.09.1h.61s.09-.04.09-.1c0-.05-.04-.1-.09-.1h-.61s-.09.05-.09.1M261.62,34.08c.06,0,.1.04.1.09,0,.04-.04.09-.1.09-.04,0-.08-.04-.08-.09s.04-.09.08-.09M261.62,34.34c.11,0,.2-.08.2-.18s-.09-.18-.2-.18c-.1,0-.17.09-.17.18s.07.18.17.18M258.66,31.77c.09,0,.17-.07.17-.17,0-.07-.07-.14-.17-.14-.08,0-.15.08-.15.14,0,.1.08.17.15.17M260.12,34.25c-.06,0-.09-.05-.09-.09s.04-.09.09-.09c.04,0,.08.03.08.09s-.03.09-.08.09M260.12,33.99c-.1,0-.19.08-.19.18s.09.18.19.18c.11,0,.17-.09.17-.18,0-.09-.06-.18-.17-.18M259.59,34.11l-.22.04-.21.03c-.05.02-.09.06-.07.11,0,.05.06.09.1.08l.22-.04.2-.03s.1-.07.09-.11c0-.06-.06-.09-.11-.09M262.14,34.31l.21.03.22.04s.1-.04.12-.08c0-.06-.05-.1-.1-.11l-.22-.03-.21-.04c-.06,0-.12.03-.12.09,0,.04.02.1.09.11M263.08,31.77c.08,0,.15-.07.15-.17,0-.07-.06-.14-.15-.14-.08,0-.16.08-.16.14,0,.1.06.17.16.17M263.51,31.75c.1,0,.18-.07.18-.15s-.08-.16-.18-.16c-.06,0-.14.08-.14.16s.08.15.14.15M264.23,32.35c.1,0,.16-.08.16-.16s-.06-.15-.16-.15c-.09,0-.15.07-.15.15s.07.16.15.16M262.74,31.85c.07,0,.15-.07.15-.15s-.09-.16-.15-.16c-.09,0-.16.06-.16.16,0,.08.08.15.16.15M241.44,64.38c-.01-.07-.06-.68-.06-.68v-.05c0-.07-.01-.59-.01-.66-.07,0-.38-.09-.45-.11v.8l.06.83-.04.03s.44-.16.5-.17M259.01,31.85c.09,0,.16-.07.16-.15,0-.1-.07-.16-.16-.16-.08,0-.16.06-.16.16,0,.08.06.15.16.15M259.78,31.4c.08,0,.16-.05.16-.16,0-.08-.08-.15-.16-.15s-.17.07-.17.15c0,.09.08.16.17.16M259.36,31.56c.08,0,.15-.08.15-.16s-.07-.15-.15-.15c-.09,0-.17.07-.17.15s.08.16.17.16M261.96,31.4c.09,0,.15-.07.15-.16,0-.08-.07-.15-.15-.15s-.15.07-.15.15c0,.09.07.16.15.16M262.39,31.56c.08,0,.16-.08.16-.16s-.09-.15-.16-.15c-.09,0-.16.07-.16.15s.07.16.16.16M261.52,31.42c.1,0,.15-.07.15-.16,0-.08-.08-.16-.15-.16-.09,0-.17.08-.17.16,0,.09.08.16.17.16M260.22,31.42c.09,0,.15-.07.15-.16,0-.08-.08-.16-.15-.16-.09,0-.15.08-.15.16,0,.1.06.16.15.16M263.93,31.96c.09,0,.16-.06.16-.15,0-.1-.08-.15-.16-.15-.1,0-.15.06-.15.15,0,.09.06.15.15.15M250.53,63.69v-.8c-.08.02-.4.1-.44.11,0,.07-.02.66-.02.66,0,.03,0,.03,0,.05,0,0-.03.62-.05.68.06.01.38.12.46.16.04-.26.06-.52.06-.85M251.14,63.3v.38l-.02.47s-.04.27-.04.37c.06,0,.38-.07.43-.07,0-.07.08-1.3.08-1.37-.04-.02-.36-.13-.45-.16v.38ZM250.29,66.57c-.07.07-.14.1-.23.09-.08,0-.16-.05-.21-.1-.05-.06-.08-.13-.08-.21,0-.09.04-.18.11-.24.14-.11.31-.09.44.04.11.13.08.32-.05.43M250.27,65.55v.03s-.07,0-.07,0c-.12-.02-.27,0-.41.04h-.03s-1.04-1.19-1.04-1.19c0,0,0,0,.02,0-.02,0-.05-.03-.16-.15,0,0-.08-.11-.12-.16-.05.05-.27.24-.32.28.04.06.25.31.25.31l1.01,1.18h.02s-.02.04-.02.04c-.06.13-.12.28-.12.42,0,.16.06.32.16.47l.03.02-.03.03c-.3.35-.63.64-.96.86.04.04.17.31.22.37.04-.04.34-.26.34-.26.28-.23.54-.47.76-.74l.03-.02h.03c.26.09.54.04.75-.14.16-.14.26-.34.28-.55.02-.21-.04-.41-.18-.57-.01,0-.07-.07-.07-.07l.02-.02c.16-.41.28-.8.34-1.18,0,0,.03-.27.04-.38h-.43c-.06.48-.15.93-.33,1.36M248.7,68.22v-.02c-.24.16-.49.3-.74.42,0,0-.23.1-.35.14.07.07.3.29.32.33.41-.14.81-.36,1.21-.64,0-.06-.08-.39-.1-.48-.09.06-.34.25-.34.25M248.92,54.52h-1.37s-.1.36-.13.45h1.63c-.02-.09-.11-.41-.12-.45M245.77,69.13c-.18,0-.31-.15-.31-.32s.14-.31.31-.31.31.15.31.31c0,.17-.14.32-.31.32M247.68,68.17c-.38.16-.76.28-1.14.34h-.04v-.03c-.1-.19-.29-.36-.5-.43h-.04v-2.26h-.43v2.22s0,.04,0,.04h-.02c-.21.08-.36.22-.46.44l-.02.02h-.02c-.29-.04-.57-.1-.84-.2-.04,0-.31-.11-.4-.14-.02.06-.16.32-.2.38.08.03.36.15.36.15.33.11.66.19,1.03.24h.03v.04c.08.36.41.62.79.62s.68-.26.75-.62l.02-.03h.03c.3-.06.63-.14.96-.24,0,0,.27-.11.37-.16-.04-.05-.19-.33-.22-.38M251.6,57.56c-.05-.02-.37-.11-.46-.14v1.65c.09-.02.41-.12.46-.14v-1.37ZM257.66,33.07v-.04s0-.02,0-.02c0,0,.09.02.12.1.04.09.02.23.02.23h.02l.31-.29.19.13-.03.23-.29.03c.05.04.11.1.19.15.14.15.28.13.28.13.09-.02.12-.09.14-.19h-.02s-.08-.06-.09-.11c-.01-.03-.01-.05-.01-.07,0-.03,0-.06.01-.07l.06-.05.09.02s.06.05.07.09c.02.06.01.12-.03.15.06.08.15.12.26.12.17,0,.31-.13.31-.31,0-.06,0-.11-.04-.16,0,0-.03-.02-.04-.03l-.29.18-.16-.17.08-.21.36.03s0-.02,0-.03l-.21-.31.2-.18.28.09-.09.36s.02.02.04.03l.3-.17.15.17-.07.21-.35-.04s0,.04-.02.05v.04c0,.19.14.34.34.34.14,0,.29-.11.32-.25-.04-.02-.1-.07-.1-.13v-.03c0-.06.04-.12.1-.14l.08.02s.07.08.07.12,0,.09-.03.13c0,0-.02,0-.03.02.04.12.17.21.31.21.18,0,.33-.15.33-.34,0-.04,0-.07-.02-.1-.01,0-.02-.03-.04-.04l-.32.1-.13-.17.13-.21.34.11s0-.02.02-.04l-.15-.33-.02-.04.13-.09.1-.07s-.03-.01-.04-.03l-.04-.3c0-.18.02-.3.05-.38.02,0,.04,0,.05,0,.02,0,.05,0,.07,0,.02.08.05.2.05.38l-.04.3s-.03.02-.04.02l.04.03.03.02.09.06h0s.08.05.08.05l-.02.02h0s-.16.35-.16.35c.02.01.02.03.03.03l.33-.1.13.21-.13.17-.33-.1s-.01.02-.03.04c-.01.04-.01.07-.01.11,0,.19.16.34.33.34.15,0,.25-.09.31-.2-.05-.03-.06-.09-.06-.16.02-.09.08-.14.14-.13.07.02.13.09.11.17,0,.06-.06.11-.11.13.05.14.18.25.33.25.2,0,.34-.15.34-.34v-.04s-.03-.03-.03-.05l-.36.04-.08-.21.15-.17.3.17s.02-.02.04-.03l-.08-.36.27-.09.21.18-.21.31s0,.03.01.03l.35-.03.06.21-.14.17-.29-.18s-.03.03-.05.04c0,.04-.04.09-.04.15,0,.18.15.31.32.31.09,0,.18-.04.25-.12-.03-.03-.05-.09-.02-.15.04-.08.1-.13.15-.11.05.02.08.07.08.13,0,.02,0,.04-.01.06-.02.04-.05.07-.08.1h-.03c0,.1.04.18.14.2,0,0,.12.02.28-.13.07-.06.12-.11.16-.15l-.32-.03-.04-.23.18-.13.32.28s.02,0,.04,0c0,0-.03-.14.01-.23,0-.04.04-.06.07-.07,0,0,0,0,0,0,.02-.02.04-.02.04-.02v.06s.04-.02.06-.04c.02,0,.04-.02.07-.02v-.02s0,.02,0,.02c.05,0,.09.03.13.06h-.02s-.11.05-.15.09c-.07.07-.15.17-.18.26,0,.01-.03.06-.04.07-.01,0-.04.02-.06.02h-.07c-.06.1-.16.23-.26.29-.05.04-.14.1-.22.09-.14-.04-.17-.09-.23-.21-.09.04-.16.08-.26.08-.21,0-.33-.12-.43-.3-.11.11-.2.18-.37.18-.15,0-.27-.09-.37-.2-.1.09-.2.15-.34.15-.2,0-.31-.11-.42-.26-.1.15-.2.26-.4.26-.14,0-.24-.08-.34-.15-.1.11-.21.2-.37.2s-.26-.08-.37-.19c-.09.18-.21.3-.42.3-.1,0-.18-.04-.27-.08-.05.11-.09.18-.2.21-.06,0-.16-.03-.24-.09-.11-.08-.23-.24-.31-.35-.03.04-.06.1-.11.04-.04-.03-.04-.05-.06-.09-.02-.04-.11-.17-.2-.24-.04-.04-.1-.07-.14-.08h0s.11-.07.17-.06c.03.01.05.02.06.05M259.97,31.6c.14,0,.29.05.43.11-.01.06-.02.12-.02.19,0,.05,0,.11.01.16-.13-.03-.28-.05-.44-.05-.28,0-.52.05-.7.11.04-.29.34-.53.72-.53M260.68,31.45c-.04.12-.07.28-.07.44l.03.23s-.06-.02-.09-.03c-.01-.06-.02-.13-.02-.2,0-.18.05-.34.14-.44M261.06,31.31c-.04.06-.11.09-.19.09-.07,0-.14-.04-.18-.09h.37ZM260.67,31.14h.17v-.53h-.2v-.08h.2v-.18h.07v.18h.19v.08h-.19v.53h.15v.07h-.39v-.07ZM261.21,31.9c0,.07,0,.14-.03.21-.02,0-.04.02-.06.02l.03-.23c0-.15-.02-.3-.07-.42.08.1.12.25.12.42M261.77,31.6c.37,0,.69.24.73.53-.19-.07-.44-.11-.7-.11-.16,0-.31.02-.45.05,0-.06.01-.11.01-.16,0-.07,0-.13-.02-.19.12-.07.26-.11.42-.11M263.23,34.09c-.6-.18-1.42-.3-2.35-.3s-1.76.12-2.35.3c0,0-.02,0-.02,0v-.02s0-.04,0-.04c.59-.19,1.41-.32,2.36-.32s1.78.13,2.37.32c.01,0,.03.03.03.05,0,0-.03.03-.05.02M263.02,34.3h-.2s.1.2.1.2c0,.02-.02.04-.03.06v.02c-.06-.02-.11-.03-.18-.05-.5-.13-1.11-.18-1.84-.18h-.05c-.78,0-1.52.1-1.97.24,0-.02-.02-.04-.02-.06l.1-.18-.19-.03s-.04-.08-.06-.12c.57-.15,1.35-.26,2.19-.26s1.63.1,2.2.26c-.01.03-.04.07-.06.11M260.87,34.68c-.73,0-1.41.07-1.91.22.25.07.55.11.87.14h-.53c-.11-.02-.21-.04-.28-.06-.18-.05-.22-.12-.22-.15,0-.02.03-.04.05-.05.15-.05.31-.09.47-.12.43-.08.98-.13,1.53-.13h.03c.55,0,1.1.05,1.52.13.16.03.33.08.49.12.02.01.03.03.04.06.03.09-.16.14-.21.15-.07.02-.16.04-.27.06h-.53c.32-.03.63-.08.89-.14-.52-.15-1.18-.22-1.93-.22M264.1,36.93h-6.42v-1.51h6.42v1.51ZM263.45,37.36h-5.11s-.09-.01-.1-.03c.02-.01.06-.02.1-.02h5.11c.05,0,.09,0,.1.02,0,.01-.04.03-.1.03M263.12,38.16h-4.45c.02-.06.03-.13.03-.2,0-.08-.02-.15-.04-.21h4.47c-.02.07-.04.14-.04.21,0,.07.01.14.03.2M263.51,38.55h0s.06.03.06.06c0,.06-.1.06-.11.06h-5.11c-.07,0-.12-.04-.12-.06,0-.01.02-.03.05-.05h0s0,0,0,0c0,0,.02,0,.02,0,.02,0,.03-.01.04-.01h5.1s.04,0,.05,0M257.45,32.86s.09-.02.11-.05l.02.12c-.1,0-.25.08-.28.16v.05c.06.01.17.04.22.1.05.05.15.16.19.22.02.05.03.07.07.11.04.04.11.06.16.04.07.09.18.22.28.28.05.04.13.08.21.1-.02.03-.03.08-.02.12,0,.03.03.06.06.08.03.05.07.13.1.21l-.09.15.17.05s.02.06.03.09c-.03.03-.05.07-.06.11-.01.11.03.19.1.25h-1.43v2.27h.55s0,0,0,.02c0,.17.12.32.31.38h0c.09.03.17.13.17.25,0,.11-.06.19-.13.23-.2.06-.35.22-.35.42s.14.36.33.42v5.64c.07,0,.13,0,.2,0,0,0,.09,0,.23.02v-5.31h4.52v5.96c.15.05.31.09.43.13v-6.43c.22-.05.37-.21.37-.43,0-.2-.12-.35-.31-.42-.09-.04-.16-.13-.16-.23,0-.11.06-.2.15-.23h.02s.02-.02.02-.02h.03s0-.02,0-.02c.16-.07.26-.2.26-.37,0,0,0-.01,0-.01h.54v-2.27h-1.45c.08-.06.12-.14.09-.25,0-.05-.03-.09-.07-.13,0-.03.02-.06.04-.09l.15-.04-.06-.14c.05-.08.09-.17.12-.23.03-.02.05-.04.07-.07,0-.04,0-.09-.03-.12.08-.01.15-.05.21-.1.1-.06.2-.19.26-.28.05.01.1,0,.14-.04.02-.04.07-.09.06-.13.06-.07.1-.13.16-.19.02-.02.07-.04.11-.06.05-.01.14-.03.14-.03-.05-.1-.13-.21-.26-.22,0-.04.02-.08.02-.11.02.03.07.05.11.05.09,0,.15-.07.15-.16s-.06-.16-.15-.16c-.06,0-.1.02-.13.06-.08-.47-.47-.83-.92-.83-.16,0-.32.04-.47.13l.08.13c.11-.07.25-.11.39-.11.37,0,.68.29.75.67-.12-.13-.33-.23-.59-.3-.2-.05-.36-.06-.49-.04.02-.03.03-.06.03-.1,0-.09-.09-.15-.17-.15-.05,0-.1.03-.12.07-.07-.36-.43-.63-.87-.63-.17,0-.33.04-.47.11-.03-.08-.08-.16-.13-.21.03-.05.04-.11.04-.16,0-.13-.09-.25-.19-.3v-.16h.19v-.3h-.19v-.18h-.29v.18h-.2v.3h.2v.16c-.12.06-.2.17-.2.3,0,.06.02.11.04.16-.06.06-.1.14-.13.23-.15-.07-.31-.11-.47-.11-.46,0-.83.28-.87.66-.03-.04-.08-.06-.12-.06-.08,0-.15.08-.15.16,0,.01,0,.03,0,.04-.14-.02-.3,0-.49.04-.28.07-.5.2-.61.33.07-.4.39-.7.78-.7.12,0,.25.04.37.12l.07-.14c-.14-.09-.3-.13-.45-.13-.48,0-.85.36-.94.83-.03-.04-.07-.06-.12-.06-.1,0-.16.07-.16.16,0,.1.07.16.16.16M250.84,61.53c-.16,0-.31-.15-.31-.3,0-.18.15-.32.31-.32.18,0,.32.14.32.32,0,.16-.14.3-.32.3M251.08,60.46h-.03v-1.78h-.43v1.78h-.03c-.25.08-.44.28-.51.52v.03s-1.32,0-1.39,0v.43h1.39v.03c.09.24.27.41.5.48h.04v1.31c.07,0,.36-.02.43-.02v-1.28h.03c.33-.11.55-.41.55-.75s-.22-.65-.55-.77M250.53,57.41c-.08.03-.4.12-.45.14v1.37s.37.11.45.14v-1.65ZM250.84,54.96c.19,0,.32.13.32.31s-.13.33-.32.33c-.16,0-.3-.16-.3-.33s.15-.31.3-.31M248.68,55.48h1.4l.08.15-.02.03-1.66,1.97v-.02s-.08.09-.27.32c.06.04.29.24.32.28.07-.07,1.92-2.27,1.92-2.27l.1.05.08.03v1.73h.43v-1.71s0-.03,0-.03h.03c.34-.11.55-.42.55-.77,0-.44-.35-.79-.8-.79-.33,0-.64.24-.74.55v.03h-1.41v.43ZM245.72,54.96c.18,0,.32.14.32.31s-.14.33-.32.33-.32-.16-.32-.33.15-.31.32-.31M243.71,55.48h1.26s.02.03.02.03c.08.25.28.44.51.52h.03v1.05h.43v-1.06h.03c.22-.09.41-.29.49-.52v-.03h1.29v-.43h-1.28v-.03c-.11-.32-.43-.55-.77-.55s-.64.22-.74.55l-.02.03h-1.26v.43ZM242.75,68.2s-.23-.16-.34-.24c-.03.09-.09.42-.1.48.4.27.8.49,1.21.64.03-.03.26-.26.31-.33-.07-.04-.34-.13-.34-.13-.26-.11-.49-.26-.74-.42M246.75,37.96c.23.19.4.47.38.47-.04.06-.22-.11-.35-.16,0,0-.1.02-.2.02-.09,0-.14-.05-.16-.1-.01-.04.02-.13.02-.13l-.15-.03-.02-.19s.32,0,.49.12M240.63,39.1c.02.09.05.14.13.2.1.07.35.16.35.29-.1-.04-.39-.06-.47.03-.02.02-.02.07-.02.09-.02.01-.03.03-.07.03-.08.03-.16.06-.22.13-.19.15-.19.4-.18.61.11-.13.23-.24.43-.22.09.02.17.04.27.04.05.02.09.05.14.04.07,0,.13-.04.21-.07.14-.07.17-.02.24.1.03.05.07.1.1.16.08.16.13.28.31.34-.2.03-.37.08-.53.19-.05.03-.06.03-.03.08.02.04.1,0,.1,0,.16-.02.24,0,.38.09.14.06.23.08.37.09-.1.08-.16.15-.29.18-.06.03-.12.05-.18.08.12.03.24.08.37.12.18.06.37.08.54.14.09.03.17.07.27.12.08.04.16.13.22.22.12.12.24.23.39.35-.21.16-.42.31-.63.46-.09.06-.16.11-.25.16-.1.08-.25.1-.37.1-.2.03-.33,0-.43-.17-.06-.09-.12-.17-.24-.18-.04,0-.08.01-.12.05-.03-.02-.04-.04-.08-.05-.31-.15-.56.12-.71.38.08-.02.15-.04.24-.06.09,0,.32.03.28.17-.04.17.21.22.32.27.05,0,.11.04.13.09,0,.06-.08.05-.13.05-.08,0-.18,0-.24.04-.09.04-.03.09-.12.1-.09,0-.16,0-.24.06-.22.12-.27.35-.27.58.08-.07.14-.13.26-.17.1-.03.23.05.32.08.12.06.21.03.34-.01.07-.04.23-.12.12.01-.05.06-.13.14-.13.22s.07.13.07.2c0,.08,0,.14.03.22.06.25.28.36.52.39-.05-.14-.16-.29-.08-.43.09-.17.27-.23.26-.45-.02-.07-.09-.26,0-.34.09-.07.22-.06.33-.08.19-.02.35-.06.48-.21-.02.19-.04.37-.06.55.31-.25.65-.46.79-.82,0,.13-.02.24-.02.37-.02.06-.02.09.02.11.06.02.06-.02.1-.07.12-.21.27-.38.46-.51.1-.08.2-.12.33-.13.03.08.06.18.08.27.32.76,1.09,1.14,1.77,1.51-.27.06-.51.08-.78.08-.24,0-.58-.06-.8.05-.18.08-.28.21-.36.37-.1.18-.14.29-.12.48,0,.24-.05.49.04.7.04.1.11.16.19.24,0-.21.04-.38.08-.57.06.14.04.26,0,.41-.02.16.04.32.06.47.09-.15.12-.35.28-.47-.03.18,0,.34,0,.52.02.14-.16.14-.28.16-.27.05-.46.03-.65-.21-.1-.1-.1-.21-.14-.34-.01-.13-.16-.23-.27-.1-.29-.32-.65-.11-.91.13.12,0,.37-.06.43.05.04.06.08.13.11.19.03.02-.02.04-.02.09,0,.06.08.11.11.14.06.05.14.1.14.18,0,.15-.13.07-.22.05-.1-.01-.41-.12-.35.1-.21-.03-.41.07-.48.28-.04.13-.05.27-.04.4.1-.11.22-.27.4-.23.09,0,.18.05.27.09.08.03.1.16.21.1.09-.04.13-.14.24-.16.14-.02.13.02.07.12-.06.1-.22.32-.06.4-.19.34.13.56.44.68-.03-.07-.09-.13-.1-.21-.05-.16.08-.27.19-.36.17,0,.21-.15.17-.28-.03-.07.05-.13.09-.16.1-.05.15-.02.23.02.11.03.19.08.28.08.1,0,.21,0,.31,0,.14,0,.26.02.37.07.13.06.29.06.37-.03.08-.08.19-.19.2-.29.03-.11-.02-.24-.05-.35-.08-.27-.15-.53-.19-.81-.02-.2-.07-.55.23-.53.19,0,.36.02.56.02h.06c-.03.09-.06.18-.11.28-.05.12-.03.27-.02.4.02.24.1.5.23.7.08.11.18.18.27.28.08.08.15.18.24.24.05.05.18.07.13-.06-.02-.08-.09-.15-.09-.22,0-.08,0-.15,0-.23.1.24.26.41.44.6,0-.19.02-.38.01-.57.05.14.21.19.3.31.12.13.14.37.02.5-.14.14-.3.15-.46.08-.11-.05-.37,0-.34.17-.27-.05-.43.04-.54.27-.06.11-.09.25-.13.38.19-.18.35-.31.63-.21.12.04.2.19.33.1.09-.02.13-.09.22,0,.04.03-.1.08-.1.08-.12.05-.24.14-.29.29,0,.03,0,.09,0,.11-.05.05-.09.1-.1.18-.1.24.13.5.27.68,0-.14-.05-.37.06-.45.09-.05.16-.08.26-.09.04,0,.06.01.1,0,.05-.09.07-.18.07-.28.02-.05.09-.21.09-.09,0,.1-.02.48.17.42-.04.33.26.54.55.56-.11-.21-.2-.45.04-.63.03-.04.06-.02.08-.07.05-.06.01-.15-.02-.19-.05-.13-.14-.22-.16-.37-.03-.25.05-.46.12-.69.03-.12.07-.25.13-.35.08-.18.21-.33.33-.49.06-.13.06-.28-.03-.39-.09-.09-.12-.3-.25-.34-.16-.03-.25-.05-.36-.15-.06-.06-.12-.11-.17-.18-.16-.27-.14-.65-.06-.93.04-.19.14-.38.3-.51.1-.06.21-.06.31-.09.17-.04.33-.06.49-.14.32-.14.57-.42.7-.76.18-.5.12-1.05-.06-1.58-.1-.29-.21-.61-.33-.9-.04-.16-.12-.3-.16-.46-.07-.37-.11-.76-.04-1.12.05-.26.19-.36.4-.51.18-.11.3-.3.39-.5.06-.14.08-.29.15-.44.16-.27.35-.51.58-.71-.21,0-.42,0-.63.06.17-.2.41-.42.51-.66.08-.23.12-.5.13-.75,0-.04,0-.04-.03-.04-.06-.01-.04,0-.08.05-.08.14-.22.23-.35.33-.24.15-.48.27-.61.55,0-.27-.12-.47-.23-.71-.04-.02-.09,0-.09,0,0,0,0,.07,0,.08,0,.16,0,.3-.03.46-.05.19-.14.35-.21.54-.14.3-.25.63-.27.97-.03.27.04.56,0,.82-.03.34-.15.68-.13,1.01.02.76.31,1.45.46,2.17.07.4.12.92-.15,1.27-.3.36-.93.35-1.3.12-.32-.2-.52-.53-.71-.82-.17-.27-.31-.55-.42-.85-.05-.13-.1-.28-.12-.42-.04-.15-.06-.29-.11-.44.19.15.31.31.44.52.04-.49.11-.97-.05-1.44.24.18.39.38.52.64.11-.33.2-.66,0-.99.14.08.28.13.38.26.07.08.11.16.15.24v-.3c0-.22-.07-.38-.21-.55-.1-.11-.19-.2-.24-.33-.07-.15-.09-.32-.09-.48.14.1.27.21.4.3-.02-.23-.09-.46-.17-.69-.02-.07,0-.15.02-.25.03-.09.03-.19.03-.29,0-.08,0-.14-.03-.22v-.1s.09-.05.12-.08c.07-.02.1-.04.16-.06.14-.05.29-.08.47-.09,0,0,.04.03.05.02.05-.04.08-.03.12-.02.07.01.13.01.18.04.06.04.14.11.16,0,.02-.22-.19-.36-.38-.22,0-.04,0-.2-.03-.2-.07,0-.14,0-.2,0-.04,0-.08.1-.08.12-.05.06-.08.08-.01.11-.05,0-.23,0-.18-.1,0-.04.04-.08.07-.11-.07,0-.1.02-.16,0-.07-.03,0-.16.04-.19.01.04.08.19.08.19.07-.03.13-.04.21-.04.03-.02.05-.17.06-.19.03-.08-.05-.07-.13-.1.07-.02.18-.02.16-.08,0-.05,0-.17-.04-.22-.02-.03-.14-.03-.17-.04-.1-.02-.1.07-.12.15-.03-.05-.03-.15-.08-.14-.07,0-.16.02-.2.06-.02.03-.04.13-.06.16-.03.09.07.09.14.14-.04.04-.11.08-.2.05-.07-.05-.05-.14-.04-.22-.05.03-.14.07-.19,0-.06-.08,0-.18.04-.23.03.03.07.15.1.15.07-.03.12-.07.2-.08.02-.02.03-.16.03-.18,0-.1-.05-.08-.14-.1.06-.03.18-.05.15-.1,0-.05-.03-.17-.05-.19-.04-.04-.16-.02-.19-.04-.1,0-.09.1-.1.18-.03-.08-.03-.16-.12-.12-.01,0-.15.05-.15.06-.01.07-.02.15-.04.21,0,.03.14.06.18.07-.06.07-.1.12-.2.11-.1-.03-.08-.12-.08-.2-.07.03-.15.09-.2,0-.06-.05-.02-.13,0-.2.04.04.09.15.13.12.04-.03.14-.05.18-.09.02-.04,0-.14,0-.17,0-.1-.07-.06-.15-.08.04-.04.15-.08.12-.13-.02-.03-.05-.16-.09-.19-.03-.02-.15,0-.2,0-.08,0-.05.09-.06.17-.02-.03-.06-.13-.12-.1-.04.03-.15.06-.18.09-.02.05,0,.17,0,.21,0,.05.12.05.18.05,0,.04-.13.14-.17.06,0-.06-.03-.09-.03-.15-.04.03-.04.1-.1.11-.09,0-.11-.1-.13-.18.06.07.06.02.12-.03.02-.02.09-.06.09-.1-.03-.07-.03-.14-.03-.2-.02-.04-.18,0-.2,0,.07-.15.02-.3-.16-.32-.04,0-.21-.04-.2.07,0,.02.06.07.08.08.02.03.04.05.06.09,0,.04.07.15.05.2-.02.03.02.05.02.11.04.12.04.28.03.42-.03.08-.03.13-.06.21-.04.07-.02.08-.1.11-.12.02-.27.04-.37.14-.04.03-.06.09-.08.16,0,0-.01.03-.02.04-.02.04-.06.07-.1.08-.12.04-.25.03-.38.06-.17,0-.42,0-.58.1-.12.11-.03.34.02.49.05.1.14.13.17.22,0,.09,0,.14.01.22.1-.05.19-.1.28-.15,0,.07.03.15.05.23.08-.05.14-.11.21-.17.05-.02.13.07.15.09.03.05.03.08.03.11.01.07-.03.05-.07.05-.4.03-.77-.05-1.11-.27-.25-.17-.48-.51-.78-.56-.28-.04-.55.05-.79.18.22.08.4.21.54.37.19.23.42.53.73.59.28.04.58.02.86,0,.19,0,.38.04.56.06-.04.13-.15.18-.28.19-.05-.05-.1-.11-.15-.17-.02.06-.08.12-.12.17-.04,0-.12-.13-.12-.17-.06.07-.1.14-.14.2-.17.05-.23.21-.07.33.1.08.35.2.33.35-.02.14-.22.24-.34.27-.25.08-.54.03-.78.03-.1,0-.17,0-.23.03-.04,0-.11.03-.14.02-.14-.07-.28-.1-.42-.19-.2-.14-.39-.32-.6-.42-.16-.08-.36-.14-.49-.26-.12-.1-.23-.25-.28-.4-.09-.17,0-.36.1-.49.06-.09.21-.26.15-.39-.02-.03-.06,0-.04-.06,0-.04.01-.08.01-.11,0-.08,0-.17-.03-.24-.04-.12-.14-.23-.24-.32-.08-.04-.16-.07-.25-.09.08.18.14.33.02.51-.03.04-.06.07-.1.1-.02.04-.06,0-.1.04-.07.07-.07.21-.05.29,0,.09,0,.19-.02.28-.04.1-.11-.03-.15-.07-.07-.11-.25-.41-.38-.21-.27-.37-.72-.14-.94.14.12,0,.26,0,.37.03.13.02.18.14.2.25M241.6,66.56c-.06.06-.13.1-.22.1-.08,0-.15-.02-.23-.09-.06-.05-.1-.12-.11-.21,0,0,0,0,0-.03,0-.06.03-.13.08-.19.12-.13.32-.15.45-.04.11.11.14.31.03.45M242.75,68.1c.04-.06.19-.33.22-.37-.34-.23-.68-.52-.98-.86l-.02-.03v-.02c.12-.15.17-.31.17-.48,0-.13-.04-.28-.11-.41l-.02-.03,1.03-1.19s.19-.24.26-.31c-.06-.04-.27-.23-.32-.28-.04.06-.21.24-.21.24l-.05.07-1.04,1.19v.02l-.03-.02c-.15-.04-.29-.06-.43-.04h-.04s-.02-.02-.02-.02c-.12-.3-.21-.62-.26-.96l-.02-.04s-.03-.28-.04-.37h-.44c0,.08.05.41.05.41.07.39.18.78.35,1.15v.03l-.06.07c-.12.14-.19.33-.19.52v.05c.04.21.12.41.28.55.22.18.49.23.76.15h.03s.02,0,.02,0c.22.27.47.52.76.75,0-.02.25.18.34.24"/>
  </g>
</svg>